<svg width="33" height="32" viewBox="0 0 33 32" fill="none" xmlns="http://www.w3.org/2000/svg">
<g clip-path="url(#clip0_3_26)">
<path d="M27.329 0H5.441C2.43657 0 0.000999451 2.43557 0.000999451 5.44V26.5088C0.000999451 29.5132 2.43657 31.9488 5.441 31.9488H27.329C30.3334 31.9488 32.769 29.5132 32.769 26.5088V5.44C32.769 2.43557 30.3334 0 27.329 0Z" fill="#330000"/>
<path d="M15.8799 19.1731H10.8021L9.76893 22.3825C9.75487 22.441 9.72083 22.4928 9.67267 22.5289C9.62451 22.5651 9.56526 22.5832 9.50512 22.5804H6.93322C6.78666 22.5804 6.73533 22.4997 6.77936 22.3384L11.1758 9.67693C11.2197 9.54509 11.2637 9.39495 11.3076 9.22637C11.3652 8.93299 11.3947 8.63501 11.3956 8.33613C11.3926 8.31522 11.3945 8.29391 11.4012 8.27387C11.4078 8.25383 11.4191 8.23562 11.434 8.22068C11.4489 8.20574 11.4671 8.19448 11.4872 8.18779C11.5072 8.18111 11.5285 8.17917 11.5494 8.18215H15.0446C15.147 8.18215 15.2056 8.21888 15.2205 8.29223L20.2103 22.3605C20.2543 22.5071 20.2103 22.5805 20.0784 22.5804H17.2207C17.1716 22.5858 17.1223 22.5732 17.0818 22.5449C17.0414 22.5166 17.0126 22.4745 17.0009 22.4265L15.8799 19.1731V19.1731ZM11.5934 16.4035H15.0666L15.0171 16.24L14.9376 15.9812L14.8809 15.7994L14.7904 15.5132L14.598 14.9107L14.4288 14.3766L13.9893 12.9852C13.88 12.6393 13.775 12.2921 13.6745 11.9436L13.5941 11.6607L13.5001 11.3262L13.3568 10.8078L13.3299 10.7101H13.308C13.198 11.2378 13.0641 11.7601 12.9066 12.2756L12.5805 13.3247L12.401 13.9043L12.2199 14.491C12.1871 14.597 12.1546 14.7018 12.122 14.8054L12.0247 15.1123L11.9279 15.4121L11.8317 15.7045L11.7359 15.9895C11.7042 16.0833 11.6724 16.1759 11.6408 16.2673L11.5934 16.4035V16.4035ZM23.1776 10.5123C22.9534 10.5213 22.7298 10.4828 22.5215 10.3995C22.3131 10.3162 22.1248 10.1898 21.9686 10.0287C21.8129 9.86054 21.6919 9.66329 21.6127 9.44826C21.5335 9.23323 21.4975 9.00465 21.5069 8.77568C21.4989 8.54901 21.5389 8.3232 21.6241 8.11301C21.7093 7.90281 21.8379 7.71296 22.0015 7.55584C22.317 7.25295 22.7372 7.08344 23.1746 7.08263L23.2215 7.08314C23.7491 7.08314 24.1632 7.24058 24.4636 7.55571C24.6152 7.71945 24.7331 7.91149 24.8104 8.12083C24.8877 8.33016 24.923 8.5527 24.9142 8.77568C24.9234 9.00557 24.8863 9.23496 24.8051 9.45023C24.7239 9.6655 24.6003 9.86225 24.4416 10.0288C24.2813 10.1868 24.0911 10.311 23.8821 10.3944C23.6731 10.4777 23.4495 10.5183 23.2246 10.5139L23.1776 10.5123V10.5123ZM21.6608 22.3605V11.8532C21.6608 11.7213 21.7191 11.6553 21.8366 11.6553H24.5405C24.6576 11.6553 24.7163 11.7212 24.7164 11.8532V22.3605C24.7164 22.5071 24.6578 22.5805 24.5405 22.5804H21.8587C21.7337 22.5804 21.6679 22.5146 21.6614 22.383L21.6608 22.3605Z" fill="#FF9A00"/>
</g>
<defs>
<clipPath id="clip0_3_26">
<rect width="32.77" height="32" fill="white"/>
</clipPath>
</defs>
</svg>
