<svg width="29" height="32" viewBox="0 0 29 32" fill="none" xmlns="http://www.w3.org/2000/svg">
<g clip-path="url(#clip0_4_32)">
<path d="M14.175 31.9407C13.7349 31.9407 13.3241 31.8233 12.9426 31.6179L9.03983 29.2997C8.45298 28.9769 8.74641 28.8596 8.92246 28.8009C9.71471 28.5368 9.86142 28.4781 10.683 28.0085C10.7712 27.9498 10.8885 27.9792 10.9764 28.0379L13.9696 29.8279C14.087 29.8866 14.2337 29.8866 14.3217 29.8279L26.03 23.0495C26.1473 22.9908 26.206 22.8735 26.206 22.7268V9.19918C26.206 9.05246 26.1473 8.93509 26.03 8.87641L14.3217 2.12729C14.2043 2.0686 14.0576 2.0686 13.9696 2.12729L2.26137 8.87652C2.144 8.9352 2.08531 9.08192 2.08531 9.19929V22.7268C2.08531 22.8441 2.144 22.9908 2.26137 23.0495L5.45993 24.8981C7.19125 25.7784 8.27682 24.7514 8.27682 23.7244V10.3729C8.27682 10.1968 8.42364 10.0208 8.62904 10.0208H10.1256C10.3017 10.0208 10.4777 10.1675 10.4777 10.3729V23.7243C10.4777 26.0425 9.21589 27.3922 7.01509 27.3922C6.34021 27.3922 5.81204 27.3922 4.31557 26.6587L1.23438 24.8981C0.471472 24.4579 0.00199127 23.6363 0.00199127 22.756V9.22863C0.00199127 8.34835 0.471472 7.52676 1.23438 7.08651L12.9426 0.308158C13.6762 -0.102638 14.6738 -0.102638 15.4074 0.308158L27.1156 7.08651C27.8785 7.52665 28.348 8.34824 28.348 9.22863V22.7561C28.348 23.6364 27.8785 24.458 27.1156 24.8981L15.4074 31.6767C15.0259 31.8527 14.5858 31.9408 14.175 31.9408V31.9407ZM17.7842 22.6386C12.6491 22.6386 11.5927 20.2912 11.5927 18.2958C11.5927 18.1198 11.7395 17.9437 11.9449 17.9437H13.4707C13.6467 17.9437 13.7935 18.0611 13.7935 18.2371C14.0283 19.7923 14.7032 20.5553 17.8136 20.5553C20.2785 20.5553 21.3349 19.9978 21.3349 18.6774C21.3349 17.9144 21.0415 17.3568 17.1974 16.9753C13.9989 16.6525 12.0035 15.9483 12.0035 13.3955C12.0035 11.0185 13.9988 9.61008 17.3441 9.61008C21.1001 9.61008 22.9488 10.9012 23.1835 13.7182C23.1835 13.8062 23.1542 13.8942 23.0955 13.9822C23.0368 14.0409 22.9488 14.0996 22.8607 14.0996H21.3349C21.1881 14.0996 21.0415 13.9822 21.012 13.8355C20.6599 12.2217 19.7503 11.6935 17.3441 11.6935C14.6446 11.6935 14.3217 12.6325 14.3217 13.3367C14.3217 14.1877 14.7032 14.4517 18.3418 14.9212C21.9511 15.3907 23.653 16.0657 23.653 18.5892C23.6236 21.1715 21.511 22.6386 17.7842 22.6386V22.6386Z" fill="#539E43"/>
</g>
<defs>
<clipPath id="clip0_4_32">
<rect width="28.35" height="32" fill="white"/>
</clipPath>
</defs>
</svg>
