<svg width="33" height="32" viewBox="0 0 33 32" fill="none" xmlns="http://www.w3.org/2000/svg">
<g clip-path="url(#clip0_3_29)">
<path d="M27.329 0H5.44099C2.43656 0 0.000991821 2.43557 0.000991821 5.44V26.5088C0.000991821 29.5132 2.43656 31.9488 5.44099 31.9488H27.329C30.3334 31.9488 32.769 29.5132 32.769 26.5088V5.44C32.769 2.43557 30.3334 0 27.329 0Z" fill="#001E36"/>
<path d="M7.37943 22.4045V8.35802C7.37943 8.25562 7.42346 8.20416 7.51139 8.20416L7.65053 8.20378L7.88835 8.20122L8.21885 8.19469L9.32605 8.17126L10.5132 8.14925C10.9308 8.14208 11.3447 8.13824 11.7551 8.13824C12.8687 8.13824 13.8066 8.2775 14.5688 8.5559C15.2564 8.78848 15.8834 9.17144 16.4043 9.67693C16.8459 10.1151 17.1871 10.6439 17.4045 11.2268C17.6101 11.7939 17.7143 12.3929 17.7124 12.9962C17.7124 14.1688 17.4411 15.136 16.8989 15.8979C16.3686 16.6411 15.6289 17.2095 14.7741 17.5306L14.7008 17.5575C13.8082 17.8904 12.8198 18.0108 11.7358 18.0183L11.5673 18.0188L11.3173 18.0175L11.1913 18.0157L11.0507 18.0124L10.966 18.0091L10.9145 18.0064L10.7879 18.0018L10.6332 17.9986L10.4002 17.9969L10.3484 17.9968V22.3825C10.3522 22.4093 10.3498 22.4368 10.3412 22.4625C10.3326 22.4883 10.3181 22.5117 10.2989 22.5309C10.2797 22.5501 10.2563 22.5646 10.2306 22.5732C10.2048 22.5817 10.1774 22.5842 10.1505 22.5804H7.53341C7.43062 22.5804 7.37943 22.522 7.37943 22.4045V22.4045ZM10.3485 10.842V15.4234C10.5239 15.4375 10.6999 15.4449 10.8759 15.4454H11.6014C12.1016 15.4437 12.5989 15.3692 13.0776 15.2243L13.1731 15.1945C13.6086 15.0651 13.9978 14.8133 14.2942 14.469C14.5697 14.1441 14.7124 13.6965 14.7223 13.126L14.7229 13.0621C14.7344 12.6369 14.6238 12.2173 14.4041 11.8532C14.1731 11.501 13.8392 11.2285 13.4479 11.0728C12.9369 10.8742 12.3911 10.7807 11.8432 10.7981L11.5644 10.7988L11.3885 10.8004L11.2207 10.8026L10.9839 10.8072L10.8111 10.812L10.7214 10.8154L10.6014 10.821L10.4993 10.8273L10.4411 10.8319L10.3908 10.8367L10.3686 10.8393L10.3485 10.842V10.842ZM26.2116 14.5903C25.8281 14.3933 25.4214 14.2453 25.0009 14.1498L24.9037 14.1288C24.4411 14.0226 23.9689 13.9642 23.4945 13.9543L23.376 13.9529C23.0978 13.9454 22.8201 13.9787 22.5517 14.0518C22.3807 14.0898 22.2288 14.1872 22.1228 14.3265C22.0512 14.438 22.0131 14.5678 22.013 14.7003C22.017 14.8288 22.0634 14.9524 22.1449 15.0519C22.2615 15.1883 22.4018 15.3027 22.5589 15.3894L22.6066 15.4147C22.92 15.5834 23.2429 15.7338 23.5737 15.8652C24.3115 16.1122 25.0164 16.4481 25.6729 16.8654C26.1203 17.1477 26.4904 17.5368 26.7502 17.9976C26.9685 18.4338 27.0779 18.9165 27.0689 19.4043C27.0821 20.0485 26.898 20.6813 26.5413 21.2179C26.1594 21.7626 25.6291 22.186 25.0135 22.4378C24.3687 22.7212 23.5769 22.8675 22.6382 22.8771L22.5406 22.8776C21.9587 22.8835 21.3775 22.8325 20.8055 22.7255L20.6831 22.7017C20.2014 22.6134 19.7326 22.4657 19.2873 22.262C19.2425 22.2389 19.2047 22.2043 19.1777 22.1618C19.1506 22.1193 19.1354 22.0704 19.1334 22.0201V19.6242C19.1308 19.6009 19.1345 19.5774 19.1442 19.5561C19.1539 19.5348 19.1692 19.5165 19.1884 19.5032C19.2073 19.4926 19.229 19.4879 19.2506 19.4899C19.2722 19.4918 19.2926 19.5003 19.3093 19.5142C19.8352 19.8244 20.4062 20.0506 21.0018 20.1847C21.5268 20.3163 22.0654 20.3864 22.6066 20.3936C23.1193 20.3936 23.4967 20.3276 23.7386 20.1957C23.8478 20.1457 23.9402 20.0651 24.0046 19.9637C24.069 19.8622 24.1026 19.7443 24.1013 19.6242C24.1013 19.434 23.9914 19.2507 23.7716 19.0747C23.6795 19.001 23.5472 18.9207 23.3752 18.834L23.2929 18.7936L23.2051 18.7523L23.159 18.7313L23.0625 18.6885C23.0458 18.6812 23.029 18.674 23.0122 18.6668L22.9072 18.6227L22.8526 18.6003L22.7392 18.5549L22.6803 18.5318L22.5583 18.4849L22.4307 18.4371C21.7404 18.1969 21.086 17.8641 20.4852 17.4479C20.0556 17.1491 19.7018 16.7539 19.4521 16.2939C19.236 15.8607 19.1267 15.3821 19.1334 14.898C19.1322 14.3164 19.2919 13.7458 19.595 13.2494C19.9406 12.7028 20.4367 12.2676 21.0238 11.9965C21.6686 11.6744 22.4745 11.5131 23.4418 11.5128C24.0083 11.5083 24.5743 11.5487 25.1344 11.6338C25.54 11.6852 25.9366 11.7925 26.3128 11.9525C26.3733 11.9699 26.4221 12.0146 26.4446 12.0735C26.4596 12.1271 26.4669 12.1825 26.4667 12.2383V14.4585C26.4699 14.511 26.4446 14.5613 26.4007 14.5903C26.3713 14.6049 26.339 14.6126 26.3061 14.6126C26.2733 14.6126 26.2409 14.6049 26.2116 14.5903V14.5903Z" fill="#31A8FF"/>
</g>
<defs>
<clipPath id="clip0_3_29">
<rect width="32.77" height="32" fill="white"/>
</clipPath>
</defs>
</svg>
