<svg width="33" height="32" viewBox="0 0 33 32" fill="none" xmlns="http://www.w3.org/2000/svg">
<g clip-path="url(#clip0_3_20)">
<path d="M27.329 0H5.441C2.43657 0 0.000999451 2.43557 0.000999451 5.44V26.5088C0.000999451 29.5132 2.43657 31.9488 5.441 31.9488H27.329C30.3334 31.9488 32.769 29.5132 32.769 26.5088V5.44C32.769 2.43557 30.3334 0 27.329 0Z" fill="#470137"/>
<path d="M17.227 8.40192L13.1383 15.1505L17.5127 22.3165C17.5408 22.3667 17.5486 22.4256 17.5347 22.4814C17.5279 22.5052 17.5133 22.5111 17.4909 22.512L17.4661 22.5116L17.4359 22.5108C17.4195 22.5108 17.4012 22.5116 17.3808 22.5149H14.2269L14.165 22.5139C13.995 22.5094 13.8725 22.4851 13.7979 22.3604C13.506 21.7919 13.2129 21.2241 12.9185 20.6569C12.6551 20.151 12.3846 19.6489 12.107 19.1507L11.9844 18.9313C11.6523 18.3412 11.3262 17.7476 11.0062 17.1508H10.9842C10.6886 17.7414 10.3845 18.3276 10.0719 18.9093C9.75664 19.4956 9.44522 20.0782 9.13764 20.6569C8.82987 21.236 8.5148 21.8113 8.19248 22.3825C8.14064 22.4989 8.0545 22.5233 7.93456 22.5272L7.88464 22.528H4.87319L4.86013 22.5284L4.81712 22.5322C4.79319 22.5336 4.77885 22.5285 4.77424 22.4924C4.76598 22.4388 4.77774 22.384 4.80727 22.3386L9.0497 15.3702L4.91709 8.38016C4.87319 8.32179 4.86589 8.27417 4.89508 8.23731C4.9113 8.21853 4.93167 8.20378 4.95457 8.19423C4.97747 8.18468 5.00229 8.18058 5.02704 8.18227H8.12644C8.19403 8.17857 8.2616 8.18985 8.32432 8.21529C8.3768 8.24512 8.42199 8.28646 8.45616 8.33625C8.71997 8.92249 9.01309 9.50873 9.33553 10.0947C9.65546 10.677 9.98153 11.2559 10.3137 11.8313C10.6408 12.3978 10.9451 12.9771 11.226 13.5679H11.248C11.5358 12.9772 11.8326 12.391 12.1382 11.8094C12.4384 11.2379 12.7462 10.6625 13.0613 10.0837C13.3725 9.51232 13.6766 8.93713 13.9736 8.35827C13.9905 8.304 14.0207 8.25485 14.0615 8.21529C14.1158 8.18781 14.1768 8.17635 14.2374 8.18227H17.117C17.1435 8.17567 17.1714 8.17785 17.1965 8.18847C17.2217 8.19909 17.2427 8.21759 17.2564 8.24118C17.2701 8.26476 17.2758 8.29217 17.2726 8.31926C17.2694 8.34636 17.2575 8.37168 17.2386 8.39142L17.2271 8.40217L17.227 8.40192ZM23.6871 22.7985L23.5356 22.8001C22.5238 22.8155 21.5213 22.6053 20.6009 22.1847C19.7436 21.7879 19.0269 21.1402 18.5456 20.3272C18.0604 19.5213 17.8113 18.517 17.7988 17.3147L17.7982 17.2168C17.79 16.2079 18.0478 15.2146 18.5458 14.3372C19.0441 13.4686 19.7706 12.753 20.6465 12.2679L20.7219 12.2269C21.6742 11.6993 22.8247 11.4355 24.173 11.4355L24.2319 11.4362L24.2992 11.4383L24.3748 11.4417L24.4587 11.4465L24.5998 11.4565L24.7595 11.4693L24.8764 11.4796V7.14905C24.8764 7.04665 24.9204 6.9952 25.0082 6.9952H27.778C27.7959 6.99263 27.8142 6.99427 27.8314 6.99999C27.8485 7.0057 27.8641 7.01534 27.8769 7.02813C27.8897 7.04093 27.8994 7.05653 27.9051 7.0737C27.9108 7.09086 27.9124 7.10913 27.9099 7.12704V20.1184C27.9099 20.3365 27.9183 20.5715 27.9352 20.8229L27.9762 21.3932L27.9979 21.723C28.0006 21.7687 27.9895 21.8141 27.9659 21.8534C27.9424 21.8926 27.9075 21.9238 27.866 21.9429C27.1514 22.2409 26.4072 22.4619 25.6458 22.6022C24.9994 22.7215 24.3443 22.7872 23.6871 22.7985V22.7985ZM24.8764 20.0744V14.0733C24.7576 14.0412 24.6363 14.0191 24.5138 14.0074C24.364 13.9924 24.2136 13.985 24.0631 13.9854C23.5297 13.9801 23.0025 14.1006 22.5244 14.3372C22.0587 14.5686 21.661 14.9171 21.3703 15.3484C21.0802 15.7728 20.93 16.327 20.9202 17.0111L20.9197 17.0849C20.909 17.5641 20.9872 18.041 21.1504 18.4916C21.2833 18.8548 21.4934 19.1848 21.7661 19.4589C22.0271 19.7111 22.3431 19.8992 22.6893 20.0084C23.0549 20.1268 23.437 20.1862 23.8213 20.1844C24.0263 20.1844 24.2168 20.177 24.3928 20.1623C24.5332 20.1517 24.6723 20.1286 24.8085 20.0932L24.8764 20.0744V20.0744Z" fill="#FF61F6"/>
</g>
<defs>
<clipPath id="clip0_3_20">
<rect width="32.77" height="32" fill="white"/>
</clipPath>
</defs>
</svg>
