<svg width="28" height="32" viewBox="0 0 28 32" fill="none" xmlns="http://www.w3.org/2000/svg">
<path d="M24.5259 6.28392C24.5038 6.12392 24.3637 6.03537 24.2478 6.02561C23.3937 5.96143 22.5395 5.89776 21.6853 5.8346C21.6853 5.8346 19.9859 4.14748 19.7994 3.96074C19.6128 3.77411 19.2483 3.83087 19.1068 3.87252C19.086 3.87865 18.7355 3.98682 18.1558 4.16622C17.5881 2.53268 16.5862 1.03153 14.8237 1.03153C14.7751 1.03153 14.725 1.0335 14.6749 1.03635C14.1736 0.373449 13.5527 0.0854492 13.0164 0.0854492C8.91062 0.0854492 6.94908 5.21805 6.33407 7.82627C4.73867 8.32063 3.6053 8.67208 3.46053 8.71756C2.57001 8.9969 2.54185 9.02496 2.42492 9.86408C2.33692 10.4994 0.00683594 28.519 0.00683594 28.519L18.1633 31.9208L28.0011 29.7926C28.0011 29.7926 24.5477 6.44392 24.526 6.28392H24.5259ZM17.1523 4.47657L15.6159 4.95208C15.6165 4.84381 15.617 4.73729 15.617 4.62079C15.617 3.60556 15.4761 2.78813 15.25 2.14013C16.1582 2.25411 16.763 3.28742 17.1523 4.47657ZM14.1234 2.34145C14.3759 2.97411 14.5401 3.88205 14.5401 5.10726C14.5401 5.16994 14.5395 5.22726 14.539 5.28523C13.5399 5.59471 12.4542 5.93071 11.3661 6.26781C11.977 3.90989 13.1222 2.77104 14.1234 2.34145V2.34145ZM12.9036 1.18671C13.0808 1.18671 13.2593 1.24687 13.4302 1.36446C12.1143 1.98364 10.7039 3.54309 10.1083 6.65729L7.60026 7.43405C8.2979 5.05871 9.95445 1.18671 12.9035 1.18671H12.9036Z" fill="#95BF46"/>
<path d="M24.2477 6.02565C23.3935 5.96147 22.5394 5.89779 21.6852 5.83463C21.6852 5.83463 19.9858 4.14751 19.7992 3.96077C19.7294 3.89129 19.6353 3.85567 19.5369 3.84033L18.1641 31.9207L28.001 29.7927C28.001 29.7927 24.5474 6.44395 24.5257 6.28395C24.5037 6.12395 24.3635 6.0354 24.2477 6.02565" fill="#5E8E3E"/>
<path d="M14.8236 11.4612L13.6106 15.0696C13.6106 15.0696 12.5478 14.5023 11.245 14.5023C9.33508 14.5023 9.23897 15.7009 9.23897 16.0029C9.23897 17.6509 13.5349 18.2824 13.5349 22.1426C13.5349 25.1796 11.6086 27.1352 9.01136 27.1352C5.89464 27.1352 4.30078 25.1955 4.30078 25.1955L5.1353 22.4382C5.1353 22.4382 6.77366 23.8448 8.15612 23.8448C9.05947 23.8448 9.42692 23.1336 9.42692 22.6139C9.42692 20.4642 5.90253 20.3683 5.90253 16.8359C5.90253 13.8629 8.03645 10.9858 12.344 10.9858C14.0037 10.9858 14.8236 11.4612 14.8236 11.4612" fill="white"/>
</svg>
