<svg width="256" height="256" viewBox="0 0 256 256" fill="none" xmlns="http://www.w3.org/2000/svg">
<g clip-path="url(#clip0_2_11)">
<path d="M23.759 51.5H232.137C245.325 51.5 256 62.175 256 75.363V154.904C256 168.092 245.325 178.767 232.137 178.767H157.41L167.667 203.885L122.558 178.767H23.863C10.676 178.767 0.00100077 168.092 0.00100077 154.904V75.363C-0.103999 62.28 10.57 51.5 23.759 51.5Z" fill="#9B5C8F"/>
<path d="M14.578 73.25C16.035 71.272 18.22 70.232 21.134 70.024C26.442 69.607 29.46 72.104 30.188 77.516C33.414 99.266 36.952 117.686 40.698 132.775L63.488 89.38C65.57 85.425 68.172 83.344 71.294 83.136C75.873 82.824 78.682 85.737 79.827 91.877C82.429 105.717 85.759 117.477 89.713 127.467C92.419 101.035 96.998 81.991 103.45 70.232C105.01 67.318 107.3 65.861 110.318 65.652C112.712 65.445 114.897 66.173 116.874 67.734C118.851 69.295 119.892 71.272 120.1 73.666C120.204 75.539 119.892 77.1 119.06 78.661C115.001 86.154 111.67 98.746 108.965 116.228C106.364 133.191 105.427 146.408 106.051 155.878C106.26 158.478 105.843 160.768 104.803 162.746C103.553 165.035 101.681 166.284 99.287 166.492C96.581 166.7 93.772 165.452 91.066 162.642C81.388 152.755 73.687 137.978 68.068 118.31C61.303 131.63 56.308 141.62 53.082 148.28C46.942 160.04 41.739 166.076 37.368 166.388C34.558 166.596 32.165 164.202 30.084 159.208C24.777 145.575 19.053 119.246 12.914 80.222C12.497 77.516 13.121 75.122 14.578 73.25V73.25ZM238.214 89.588C234.468 83.032 228.952 79.078 221.564 77.516C219.586 77.1 217.714 76.892 215.944 76.892C205.954 76.892 197.837 82.095 191.489 92.502C186.077 101.347 183.372 111.129 183.372 121.848C183.372 129.861 185.037 136.729 188.367 142.453C192.113 149.009 197.629 152.963 205.017 154.524C206.994 154.941 208.867 155.149 210.637 155.149C220.731 155.149 228.848 149.946 235.092 139.539C240.503 130.589 243.209 120.807 243.209 110.089C243.313 101.972 241.544 95.207 238.214 89.588V89.588ZM225.102 118.414C223.645 125.282 221.043 130.381 217.192 133.815C214.175 136.521 211.365 137.665 208.764 137.145C206.266 136.625 204.184 134.44 202.624 130.381C201.374 127.155 200.751 123.929 200.751 120.911C200.751 118.31 200.959 115.708 201.479 113.315C202.416 109.048 204.185 104.885 206.994 100.931C210.429 95.831 214.071 93.751 217.817 94.479C220.315 94.999 222.397 97.185 223.957 101.243C225.206 104.469 225.83 107.695 225.83 110.713C225.83 113.419 225.622 116.02 225.102 118.413V118.414ZM173.069 89.588C169.323 83.032 163.703 79.078 156.419 77.516C154.442 77.1 152.569 76.892 150.799 76.892C140.809 76.892 132.692 82.095 126.344 92.502C120.933 101.347 118.227 111.129 118.227 121.848C118.227 129.861 119.892 136.729 123.222 142.453C126.968 149.009 132.484 152.963 139.872 154.524C141.85 154.941 143.722 155.149 145.492 155.149C155.586 155.149 163.703 149.946 169.947 139.539C175.359 130.589 178.064 120.807 178.064 110.089C178.064 101.972 176.399 95.207 173.069 89.588V89.588ZM159.853 118.414C158.396 125.282 155.794 130.381 151.944 133.815C148.926 136.521 146.116 137.665 143.514 137.145C141.017 136.625 138.936 134.44 137.374 130.381C136.126 127.155 135.502 123.929 135.502 120.911C135.502 118.31 135.71 115.708 136.23 113.315C137.167 109.048 138.936 104.885 141.746 100.931C145.18 95.831 148.822 93.751 152.568 94.479C155.066 94.999 157.148 97.185 158.708 101.243C159.958 104.469 160.581 107.695 160.581 110.713C160.686 113.419 160.373 116.02 159.853 118.413V118.414Z" fill="white"/>
</g>
<defs>
<clipPath id="clip0_2_11">
<rect width="256" height="256" fill="white"/>
</clipPath>
</defs>
</svg>
