<svg width="33" height="32" viewBox="0 0 33 32" fill="none" xmlns="http://www.w3.org/2000/svg">
<g clip-path="url(#clip0_3_23)">
<path d="M27.329 0H5.44099C2.43656 0 0.000991821 2.43557 0.000991821 5.44V26.5088C0.000991821 29.5132 2.43656 31.9488 5.44099 31.9488H27.329C30.3334 31.9488 32.769 29.5132 32.769 26.5088V5.44C32.769 2.43557 30.3334 0 27.329 0Z" fill="#49021F"/>
<path d="M11.901 8.35801V22.3604C11.901 22.5071 11.8351 22.5804 11.7031 22.5804H9.0433C8.92592 22.5804 8.8673 22.507 8.86755 22.3604V8.35801C8.86755 8.24089 8.93348 8.18227 9.06532 8.18214H11.7252C11.7475 8.17898 11.7703 8.18072 11.7919 8.18725C11.8136 8.19378 11.8335 8.20495 11.8504 8.21997C11.8672 8.23499 11.8806 8.2535 11.8896 8.27423C11.8986 8.29495 11.903 8.31738 11.9024 8.33997L11.901 8.35801ZM19.912 22.7987L19.7705 22.8001C18.7587 22.8155 17.7563 22.6053 16.8359 22.1847C15.9786 21.7879 15.2619 21.1402 14.7806 20.3272C14.2944 19.5196 14.0454 18.513 14.0336 17.3076L14.0333 17.2168C14.025 16.2079 14.2829 15.2146 14.7808 14.3372C15.2799 13.4673 16.0078 12.7509 16.8855 12.2657L16.9569 12.2268C17.9092 11.6993 19.0597 11.4355 20.408 11.4355L20.4365 11.4356L20.4996 11.4371L20.571 11.4399L20.6507 11.444L20.7387 11.4495L20.8348 11.4565L21.052 11.4743L21.1114 11.4794V7.14918C21.1114 7.04678 21.1554 6.9952 21.2432 6.9952H24.013C24.0309 6.99263 24.0492 6.99427 24.0664 6.99999C24.0835 7.0057 24.0991 7.01534 24.1119 7.02813C24.1247 7.04093 24.1344 7.05653 24.1401 7.0737C24.1458 7.09086 24.1474 7.10913 24.1449 7.12704V20.1184C24.1458 20.3898 24.1568 20.6611 24.1779 20.9317L24.1986 21.2151L24.2169 21.4789L24.2328 21.723C24.2355 21.7687 24.2244 21.8141 24.2009 21.8533C24.1773 21.8926 24.1425 21.9238 24.101 21.9429C23.3864 22.2409 22.6422 22.4619 21.8808 22.6022C21.2312 22.7222 20.5727 22.7879 19.9122 22.7987H19.912ZM21.1114 20.0744V14.0733C20.9926 14.0412 20.8713 14.0191 20.7488 14.0074C20.599 13.9924 20.4486 13.985 20.2981 13.9854C19.7646 13.9802 19.2375 14.1006 18.7594 14.3372C18.2937 14.5686 17.896 14.9171 17.6053 15.3484C17.3048 15.7879 17.1545 16.3668 17.1547 17.0849C17.144 17.5641 17.2222 18.041 17.3854 18.4916C17.5183 18.8548 17.7283 19.1848 18.001 19.4589C18.262 19.7111 18.5781 19.8992 18.9243 20.0084C19.2899 20.1268 19.672 20.1862 20.0563 20.1844C20.2613 20.1844 20.4518 20.177 20.6278 20.1623C20.7682 20.1517 20.9073 20.1286 21.0436 20.0932L21.1114 20.0744V20.0744Z" fill="#FF3366"/>
</g>
<defs>
<clipPath id="clip0_3_23">
<rect width="32.77" height="32" fill="white"/>
</clipPath>
</defs>
</svg>
