<svg width="22" height="32" viewBox="0 0 22 32" fill="none" xmlns="http://www.w3.org/2000/svg">
<g clip-path="url(#clip0_2_14)">
<path d="M5.33667 32C8.28067 32 10.67 29.6107 10.67 26.6667V21.3333H5.33667C2.39267 21.3333 0.00333405 23.7227 0.00333405 26.6667C0.00333405 29.6107 2.39267 32 5.33667 32Z" fill="#0ACF83"/>
<path d="M0.00333405 16C0.00333405 13.056 2.39267 10.6667 5.33667 10.6667H10.67V21.3333H5.33667C2.39267 21.3333 0.00333405 18.944 0.00333405 16Z" fill="#A259FF"/>
<path d="M0.00333405 5.33333C0.00333405 2.38933 2.39267 0 5.33667 0H10.67V10.6667H5.33667C2.39267 10.6667 0.00333405 8.27733 0.00333405 5.33333Z" fill="#F24E1E"/>
<path d="M10.67 0H16.0033C18.9473 0 21.3367 2.38933 21.3367 5.33333C21.3367 8.27733 18.9473 10.6667 16.0033 10.6667H10.67V0Z" fill="#FF7262"/>
<path d="M21.3367 16C21.3367 18.944 18.9473 21.3333 16.0033 21.3333C13.0593 21.3333 10.67 18.944 10.67 16C10.67 13.056 13.0593 10.6667 16.0033 10.6667C18.9473 10.6667 21.3367 13.056 21.3367 16Z" fill="#1ABCFE"/>
</g>
<defs>
<clipPath id="clip0_2_14">
<rect width="21.34" height="32" fill="white"/>
</clipPath>
</defs>
</svg>
