<svg width="32" height="32" viewBox="0 0 32 32" fill="none" xmlns="http://www.w3.org/2000/svg">
<path d="M22.6663 17.5063V22.4357H19.809V17.8357C19.809 16.681 19.3957 15.893 18.361 15.893C17.5717 15.893 17.101 16.4237 16.8943 16.9383C16.8197 17.1223 16.7997 17.3783 16.7997 17.6343V22.4357H13.941C13.941 22.4357 13.9797 14.6463 13.941 13.8397H16.7997V15.057L16.781 15.085H16.7997V15.0583C17.1797 14.4717 17.857 13.637 19.3757 13.637C21.2557 13.637 22.6663 14.8663 22.6663 17.5063V17.5063ZM10.9503 9.69434C9.97301 9.69434 9.33301 10.337 9.33301 11.1797C9.33301 12.0063 9.95434 12.6663 10.913 12.6663H10.9317C11.929 12.6663 12.549 12.005 12.549 11.1797C12.5303 10.337 11.929 9.69434 10.9503 9.69434V9.69434ZM9.50234 22.4357H12.361V13.8397H9.50234V22.4357V22.4357Z" fill="white"/>
<path d="M7.99984 5.33317C7.29259 5.33317 6.61432 5.61412 6.11422 6.11422C5.61412 6.61432 5.33317 7.29259 5.33317 7.99984V23.9998C5.33317 24.7071 5.61412 25.3854 6.11422 25.8855C6.61432 26.3856 7.29259 26.6665 7.99984 26.6665H23.9998C24.7071 26.6665 25.3854 26.3856 25.8855 25.8855C26.3856 25.3854 26.6665 24.7071 26.6665 23.9998V7.99984C26.6665 7.29259 26.3856 6.61432 25.8855 6.11422C25.3854 5.61412 24.7071 5.33317 23.9998 5.33317H7.99984ZM7.99984 2.6665H23.9998C25.4143 2.6665 26.7709 3.22841 27.7711 4.2286C28.7713 5.2288 29.3332 6.58535 29.3332 7.99984V23.9998C29.3332 25.4143 28.7713 26.7709 27.7711 27.7711C26.7709 28.7713 25.4143 29.3332 23.9998 29.3332H7.99984C6.58535 29.3332 5.2288 28.7713 4.2286 27.7711C3.22841 26.7709 2.6665 25.4143 2.6665 23.9998V7.99984C2.6665 6.58535 3.22841 5.2288 4.2286 4.2286C5.2288 3.22841 6.58535 2.6665 7.99984 2.6665V2.6665Z" fill="white"/>
</svg>
