<svg width="32" height="32" viewBox="0 0 32 32" fill="none" xmlns="http://www.w3.org/2000/svg">
<path d="M15.9998 29.3332C14.1776 29.3332 12.4554 28.9829 10.8332 28.2825C9.21095 27.5829 7.7945 26.6274 6.58384 25.4158C5.37228 24.2052 4.41673 22.7887 3.71717 21.1665C3.01673 19.5443 2.6665 17.8221 2.6665 15.9998C2.6665 14.1554 3.01673 12.4278 3.71717 10.8172C4.41673 9.20562 5.37228 7.7945 6.58384 6.58384C7.7945 5.37228 9.21095 4.41628 10.8332 3.71584C12.4554 3.01628 14.1776 2.6665 15.9998 2.6665C17.8443 2.6665 19.5718 3.01628 21.1825 3.71584C22.7941 4.41628 24.2052 5.37228 25.4158 6.58384C26.6274 7.7945 27.5829 9.20562 28.2825 10.8172C28.9829 12.4278 29.3332 14.1554 29.3332 15.9998V17.9332C29.3332 19.2443 28.8834 20.3607 27.9838 21.2825C27.0834 22.2052 25.9776 22.6665 24.6665 22.6665C23.8665 22.6665 23.1221 22.4887 22.4332 22.1332C21.7443 21.7776 21.1776 21.3109 20.7332 20.7332C20.1332 21.3332 19.4278 21.8056 18.6172 22.1505C17.8056 22.4945 16.9332 22.6665 15.9998 22.6665C14.1554 22.6665 12.5834 22.0163 11.2838 20.7158C9.98339 19.4163 9.33317 17.8443 9.33317 15.9998C9.33317 14.1554 9.98339 12.5829 11.2838 11.2825C12.5834 9.98295 14.1554 9.33317 15.9998 9.33317C17.8443 9.33317 19.4167 9.98295 20.7172 11.2825C22.0167 12.5829 22.6665 14.1554 22.6665 15.9998V17.9332C22.6665 18.5776 22.8665 19.0829 23.2665 19.4492C23.6665 19.8163 24.1332 19.9998 24.6665 19.9998C25.1998 19.9998 25.6665 19.8163 26.0665 19.4492C26.4665 19.0829 26.6665 18.5776 26.6665 17.9332V15.9998C26.6665 13.0887 25.6163 10.5829 23.5158 8.4825C21.4163 6.38295 18.9109 5.33317 15.9998 5.33317C13.0887 5.33317 10.5829 6.38295 8.4825 8.4825C6.38295 10.5829 5.33317 13.0887 5.33317 15.9998C5.33317 18.9109 6.38295 21.4163 8.4825 23.5158C10.5829 25.6163 13.0887 26.6665 15.9998 26.6665H22.6665V29.3332H15.9998ZM15.9998 19.9998C17.1109 19.9998 18.0554 19.6109 18.8332 18.8332C19.6109 18.0554 19.9998 17.1109 19.9998 15.9998C19.9998 14.8887 19.6109 13.9443 18.8332 13.1665C18.0554 12.3887 17.1109 11.9998 15.9998 11.9998C14.8887 11.9998 13.9443 12.3887 13.1665 13.1665C12.3887 13.9443 11.9998 14.8887 11.9998 15.9998C11.9998 17.1109 12.3887 18.0554 13.1665 18.8332C13.9443 19.6109 14.8887 19.9998 15.9998 19.9998Z" fill="white"/>
</svg>
