<svg width="32" height="32" viewBox="0 0 32 32" fill="none" xmlns="http://www.w3.org/2000/svg">
<path d="M17.1734 6.73319C21.4134 7.26652 24.7334 10.5865 25.2667 14.8265C25.3467 15.5065 25.9201 15.9999 26.5867 15.9999C26.6401 15.9999 26.6934 15.9999 26.7467 15.9865C27.4801 15.8932 28.0001 15.2265 27.9067 14.4932C27.5791 11.8455 26.3766 9.383 24.4901 7.4965C22.6036 5.60999 20.1411 4.40751 17.4934 4.07985C16.7601 3.99985 16.0934 4.51985 16.0134 5.25319C15.9201 5.98652 16.4401 6.65319 17.1734 6.73319V6.73319ZM17.6801 9.54652C16.9734 9.35985 16.2401 9.78652 16.0534 10.5065C15.8667 11.2265 16.2934 11.9465 17.0134 12.1332C17.7033 12.3123 18.3328 12.6724 18.8368 13.1764C19.3408 13.6804 19.701 14.31 19.8801 14.9999C19.9689 15.3426 20.19 15.6362 20.4949 15.8161C20.7999 15.9961 21.1637 16.0478 21.5067 15.9599C22.2134 15.7732 22.6401 15.0399 22.4667 14.3332C22.1666 13.1818 21.5648 12.1312 20.7234 11.2898C19.882 10.4484 18.8315 9.84666 17.6801 9.54652V9.54652ZM25.6401 20.3465L22.2534 19.9599C21.8552 19.9131 21.4515 19.9572 21.0728 20.0888C20.6941 20.2204 20.3501 20.4362 20.0667 20.7199L17.6134 23.1732C13.8283 21.2481 10.7518 18.1716 8.82672 14.3865L11.2934 11.9199C11.8667 11.3465 12.1467 10.5465 12.0534 9.73319L11.6667 6.37319C11.5911 5.72275 11.279 5.12283 10.7897 4.68765C10.3004 4.25246 9.6682 4.01241 9.01339 4.01319H6.70672C5.20005 4.01319 3.94672 5.26652 4.04005 6.77319C4.74672 18.1599 13.8534 27.2532 25.2267 27.9599C26.7334 28.0532 27.9867 26.7999 27.9867 25.2932V22.9865C28.0001 21.6399 26.9867 20.5065 25.6401 20.3465V20.3465Z" fill="white"/>
</svg>
