
  <svg
    width="1000"
    height="1000"
    viewBox="0 0 1000 1000"
    xmlns="http://www.w3.org/2000/svg"
  >
    <defs>
      
      
      <linearGradient id="linearGradientId" gradientTransform="rotate(0 0.5 0.5)">
      <stop offset="0%"  stop-color="#7B52FB" />
			<stop offset="100%"  stop-color="#FF6501" />
    </linearGradient>
      
      
      
      
      <clipPath id="shape">
        <path fill="currentColor" d="M876,663Q760,826,588.5,845.5Q417,865,234.5,790.5Q52,716,131,538.5Q210,361,303,202.5Q396,44,603,77.5Q810,111,901,305.5Q992,500,876,663Z"></path>
      </clipPath>
    </defs>
  
    

    <g  clip-path="url(#shape)">
      <path fill="url(#linearGradientId)" d="M876,663Q760,826,588.5,845.5Q417,865,234.5,790.5Q52,716,131,538.5Q210,361,303,202.5Q396,44,603,77.5Q810,111,901,305.5Q992,500,876,663Z" />
    </g>

    
  
  </svg>