
  <svg
    width="1000"
    height="1000"
    viewBox="0 0 1000 1000"
    xmlns="http://www.w3.org/2000/svg"
  >
    <defs>
      
      
      <linearGradient id="linearGradientId" gradientTransform="rotate(0 0.5 0.5)">
      <stop offset="0%"  stop-color="#FF2F89" />
			<stop offset="100%"  stop-color="#FF6501" />
    </linearGradient>
      
      
      
      
      <clipPath id="shape">
        <path fill="currentColor" d="M738,596Q692,692,596,795.5Q500,899,389.5,810Q279,721,288.5,610.5Q298,500,251.5,352.5Q205,205,352.5,170Q500,135,629,188.5Q758,242,771,371Q784,500,738,596Z"></path>
      </clipPath>
    </defs>
  
    

    <g  clip-path="url(#shape)">
      <path fill="url(#linearGradientId)" d="M738,596Q692,692,596,795.5Q500,899,389.5,810Q279,721,288.5,610.5Q298,500,251.5,352.5Q205,205,352.5,170Q500,135,629,188.5Q758,242,771,371Q784,500,738,596Z" />
    </g>

    
  
  </svg>