<svg width="1786" height="1050" viewBox="0 0 1786 1050" fill="none" xmlns="http://www.w3.org/2000/svg">
<path d="M540.026 987.457L211.27 945.976C197.941 944.705 187.5 930.317 187.943 913.899L189.945 841.461C190.402 825.039 201.59 812.585 214.932 813.628L544.143 845.655C557.501 846.695 567.901 861.59 567.383 878.911L565.102 958.479C564.584 975.778 553.357 988.764 540.026 987.457Z" fill="#FF2F89" fill-opacity="0.4"/>
<path d="M505.441 925.985L234.413 893.997C228.623 893.478 224.099 887.251 224.277 880.095C224.479 872.94 229.345 867.538 235.11 868.047L506.264 899.004C509.773 899.312 512.499 903.212 512.358 907.723L512.054 918.387C511.878 922.899 508.938 926.302 505.441 925.985Z" fill="#FF2F89" fill-opacity="0.5"/>
<g opacity="0.6">
<path d="M1736.35 217.442L1419.5 220.467C1412.09 220.467 1407.12 213.121 1408.41 203.946L1409.09 199.104C1410.35 189.928 1417.41 182.417 1424.84 182.328L1742.09 177.753C1749.51 177.639 1762.78 185.62 1761.4 195.202L1760.66 200.286C1759.28 209.843 1743.76 217.379 1736.35 217.442Z" fill="#7B52FB" fill-opacity="0.15"/>
<path d="M1665.24 404.755L1346.27 403.612C1338.91 403.51 1333.97 395.986 1335.24 386.874L1335.91 382.046C1337.18 372.908 1344.18 365.525 1351.56 365.64L1670.94 365.221C1678.31 365.221 1687.61 373.606 1686.23 383.15L1685.49 388.234C1684.13 397.74 1672.61 404.845 1665.24 404.755Z" fill="#7B52FB" fill-opacity="0.21"/>
<path d="M1703.89 517.633L1385.1 508.457C1377.75 508.265 1372.84 500.642 1374.14 491.428L1374.82 486.574C1376.09 477.36 1383.11 470.05 1390.46 470.191L1709.67 477.817C1717.03 477.955 1727.04 487.131 1725.65 496.752L1724.91 501.836C1723.51 511.419 1711.29 517.81 1703.89 517.633Z" fill="#7B52FB" fill-opacity="0.21"/>
<path d="M1764.37 317.282L1444.62 318.694C1437.24 318.694 1432.29 311.17 1433.59 301.93L1434.27 297.063C1435.54 287.823 1442.62 280.325 1450.01 280.312L1770.17 277.302C1777.57 277.302 1787.05 285.79 1785.64 295.424L1784.9 300.508C1783.52 310.19 1771.76 317.282 1764.37 317.282Z" fill="#7B52FB" fill-opacity="0.21"/>
</g>
<path d="M415.778 929.251L1449.78 1048.84C1468.49 1050.96 1484.69 1034.32 1485.93 1011.68L1538.64 25.4899C1539.45 11.0276 1530.06 -0.0924524 1517.67 0.657381L415.993 68.5849C403.576 69.4109 393.364 79.6416 393.185 91.4606L382.352 892.294C382.125 910.72 397.037 927.304 415.778 929.251Z" fill="#7B52FB" fill-opacity="0.21"/>
<path d="M1519.47 0.428865L417.787 68.3439C405.384 69.1699 395.171 79.4002 394.979 91.2192L394.372 129.091L1537.87 71.7242L1540.41 25.287C1541.25 10.7991 1531.86 -0.320969 1519.47 0.428865Z" fill="#536171"/>
<path opacity="0.4" d="M1222.05 1023.82L1450.47 1049.32C1469.18 1051.44 1485.38 1034.81 1486.62 1012.16L1539.38 25.299C1540.19 10.8364 1530.8 -0.283369 1518.41 0.466464L1267.82 15.9834L1222.05 1023.82Z" fill="#7B52FB" fill-opacity="0.21"/>
<path d="M1519.47 0.428865L417.787 68.3439C405.384 69.1699 395.171 79.4002 394.979 91.2192L394.372 129.091L1537.87 83.1366L1540.41 25.287C1541.25 10.7991 1531.86 -0.320969 1519.47 0.428865Z" fill="#1B1559"/>
<path opacity="0.2" d="M1537.51 81.7266L394.33 129.066L393.722 166.785L1534.54 130.197L1537.51 81.7266Z" fill="#7B52FB" fill-opacity="0.21"/>
<path d="M1157.58 964.694L434.481 891.34C433.112 891.19 431.845 890.54 430.92 889.515C429.999 888.487 429.484 887.155 429.478 885.772L432.011 535.015C432.031 534.343 432.184 533.683 432.459 533.069C432.734 532.457 433.131 531.907 433.621 531.446C434.11 530.988 434.686 530.632 435.316 530.399C435.943 530.165 436.612 530.059 437.281 530.085L1172.65 551.613C1173.37 551.677 1174.07 551.879 1174.7 552.215C1175.34 552.548 1175.9 553.006 1176.36 553.563C1176.81 554.117 1177.15 554.757 1177.36 555.445C1177.57 556.134 1177.64 556.857 1177.56 557.574L1162.94 959.421C1162.8 962.622 1160.4 964.985 1157.58 964.694Z" fill="#7B52FB" fill-opacity="0.16"/>
<path d="M439.549 574.402C439.542 574.629 439.491 574.854 439.398 575.065C439.306 575.273 439.171 575.459 439.005 575.615C438.839 575.769 438.643 575.891 438.429 575.968C438.215 576.045 437.988 576.08 437.76 576.067C437.296 576.057 436.855 575.865 436.532 575.532C436.205 575.199 436.026 574.754 436.026 574.287C436.033 574.06 436.087 573.835 436.18 573.627C436.276 573.419 436.41 573.23 436.577 573.073C436.746 572.92 436.941 572.798 437.156 572.718C437.37 572.638 437.597 572.603 437.824 572.609C438.288 572.625 438.73 572.817 439.05 573.153C439.373 573.49 439.552 573.938 439.549 574.402Z" fill="#1A8CFF"/>
<path d="M444.633 574.565C444.63 574.796 444.578 575.02 444.486 575.228C444.393 575.436 444.258 575.625 444.092 575.782C443.926 575.939 443.731 576.061 443.516 576.138C443.302 576.218 443.075 576.253 442.848 576.243C442.384 576.23 441.942 576.035 441.616 575.702C441.293 575.366 441.11 574.918 441.11 574.45C441.117 574.223 441.171 573.999 441.264 573.791C441.36 573.583 441.494 573.394 441.661 573.24C441.83 573.083 442.025 572.965 442.24 572.885C442.454 572.808 442.684 572.776 442.912 572.785C443.372 572.801 443.811 572.993 444.134 573.326C444.454 573.656 444.633 574.101 444.633 574.565Z" fill="#1A8CFF"/>
<path d="M439.459 579.688C439.453 579.915 439.402 580.14 439.306 580.351C439.213 580.559 439.079 580.745 438.909 580.898C438.743 581.055 438.544 581.174 438.33 581.254C438.116 581.331 437.889 581.363 437.661 581.353C437.198 581.337 436.759 581.138 436.439 580.805C436.116 580.472 435.937 580.024 435.937 579.56C435.943 579.333 435.991 579.109 436.087 578.9C436.18 578.692 436.311 578.503 436.481 578.35C436.647 578.193 436.842 578.074 437.057 577.994C437.271 577.918 437.498 577.882 437.725 577.895C438.189 577.908 438.631 578.103 438.954 578.439C439.28 578.772 439.459 579.221 439.459 579.688Z" fill="#1A8CFF"/>
<path d="M444.546 579.864C444.54 580.095 444.486 580.319 444.39 580.527C444.297 580.732 444.159 580.921 443.993 581.074C443.827 581.228 443.628 581.35 443.417 581.427C443.203 581.507 442.976 581.542 442.748 581.529C442.284 581.516 441.843 581.321 441.52 580.988C441.2 580.652 441.021 580.203 441.024 579.739C441.03 579.512 441.078 579.285 441.171 579.076C441.267 578.868 441.398 578.683 441.565 578.526C441.734 578.372 441.929 578.25 442.144 578.174C442.355 578.097 442.585 578.062 442.812 578.074C443.276 578.084 443.721 578.276 444.044 578.612C444.37 578.948 444.55 579.397 444.546 579.864Z" fill="#1A8CFF"/>
<path d="M439.36 585.166C439.354 585.393 439.306 585.618 439.213 585.826C439.12 586.034 438.986 586.223 438.82 586.376C438.653 586.533 438.455 586.652 438.241 586.732C438.029 586.809 437.802 586.844 437.575 586.831C437.108 586.818 436.667 586.623 436.343 586.287C436.02 585.954 435.838 585.506 435.838 585.038C435.844 584.811 435.895 584.587 435.991 584.379C436.084 584.17 436.222 583.985 436.388 583.831C436.558 583.677 436.753 583.559 436.967 583.482C437.182 583.405 437.409 583.373 437.636 583.386C438.1 583.396 438.541 583.588 438.861 583.921C439.184 584.254 439.364 584.702 439.36 585.166Z" fill="#1A8CFF"/>
<path d="M444.447 585.355C444.441 585.586 444.39 585.81 444.294 586.018C444.201 586.226 444.063 586.415 443.897 586.568C443.731 586.722 443.532 586.844 443.318 586.921C443.104 586.997 442.876 587.033 442.646 587.02C442.182 587.007 441.744 586.812 441.421 586.479C441.101 586.143 440.922 585.694 440.925 585.23C440.928 585 440.979 584.775 441.072 584.567C441.165 584.359 441.299 584.174 441.466 584.017C441.632 583.863 441.83 583.741 442.041 583.665C442.256 583.584 442.483 583.552 442.71 583.565C443.177 583.578 443.619 583.773 443.942 584.106C444.265 584.443 444.447 584.891 444.447 585.355Z" fill="#1A8CFF"/>
<path d="M1158.01 586.219L1090.05 583.818C1089.31 583.745 1088.63 583.38 1088.16 582.803C1087.68 582.227 1087.45 581.487 1087.52 580.745C1087.52 579.989 1087.81 579.265 1088.34 578.724C1088.87 578.186 1089.58 577.876 1090.33 577.86L1158.3 580.184C1158.67 580.219 1159.03 580.332 1159.36 580.508C1159.68 580.684 1159.97 580.924 1160.21 581.212C1160.45 581.503 1160.62 581.836 1160.73 582.192C1160.83 582.55 1160.87 582.925 1160.83 583.3C1160.83 584.058 1160.54 584.791 1160.01 585.339C1159.48 585.883 1158.76 586.2 1158.01 586.219Z" fill="#FF2F89"/>
<path d="M1174.73 489.062L451.815 475.733C450.087 475.733 448.382 475.394 446.789 474.731C445.196 474.068 443.749 473.095 442.53 471.869C441.315 470.642 440.352 469.186 439.699 467.585C439.046 465.984 438.714 464.271 438.723 462.539L442.451 255.505C442.537 250.267 444.636 245.263 448.308 241.54C451.981 237.816 456.943 235.657 462.165 235.513L1178.74 214.71C1181.53 214.622 1184.32 215.116 1186.91 216.16C1189.51 217.204 1191.86 218.776 1193.82 220.777C1195.79 222.777 1197.31 225.164 1198.31 227.785C1199.31 230.406 1199.75 233.207 1199.62 236.009L1188.73 474.359C1188.35 482.62 1182.08 489.202 1174.73 489.062Z" fill="#7B52FB" fill-opacity="0.21"/>
<path d="M1199.17 222.424L1123.37 224.521L1124.19 205.865C1124.27 203.331 1125.29 200.92 1127.04 199.092C1128.79 197.265 1131.15 196.151 1133.67 195.965L1188.71 194.173C1195.24 193.957 1200.27 199.46 1199.96 206.475L1199.17 222.424Z" fill="#1B1559"/>
<path d="M1107.78 225.054L1031.92 227.189L1032.67 208.837C1032.76 206.327 1033.78 203.94 1035.52 202.137C1037.27 200.335 1039.62 199.245 1042.12 199.077L1099.96 197.171C1101.15 197.143 1102.33 197.367 1103.42 197.828C1104.52 198.289 1105.51 198.977 1106.32 199.846C1107.14 200.716 1107.76 201.748 1108.14 202.874C1108.53 204.001 1108.68 205.197 1108.58 206.385L1107.78 225.054Z" fill="#1B1559"/>
<path d="M1198.04 259.504L441.673 271.453L442.156 244.661C442.281 237.469 448.949 232.233 456.384 231.953L1200.16 213.996L1198.04 259.504Z" fill="#1B1559"/>
<path d="M592.866 213.4L448.888 216.374C448.161 216.427 447.432 216.328 446.744 216.084C446.056 215.839 445.429 215.455 444.898 214.955C444.367 214.454 443.945 213.849 443.66 213.177C443.372 212.505 443.228 211.78 443.238 211.049C443.311 209.525 443.954 208.085 445.039 207.014C446.124 205.943 447.57 205.319 449.089 205.267L593.131 201.976C593.851 201.897 594.58 201.974 595.265 202.202C595.953 202.429 596.586 202.802 597.117 203.294C597.648 203.787 598.068 204.388 598.349 205.057C598.631 205.726 598.765 206.448 598.746 207.173V208.33C598.669 211.481 596.033 213.286 592.866 213.4Z" fill="#1B1559"/>
<path d="M1137.31 446.553L889.469 445.054C883.285 445.054 878.61 439.41 879.013 432.536L881.864 379.807C882.27 372.93 887.629 367.327 893.826 367.289L1142.74 367.404C1148.94 367.404 1153.56 373.148 1153.06 380.342L1149.36 433.615C1148.85 440.796 1143.44 446.591 1137.31 446.553Z" fill="#EEF9FF"/>
<path d="M914.734 445.166L889.76 445.051C883.422 445.051 878.595 439.547 879.001 432.849L882.031 379.196C882.434 372.498 887.908 367.02 894.271 366.981L919.344 366.818" fill="#7B52FB" fill-opacity="0.21"/>
<path d="M967.746 427.109L939.541 427.019C938.805 426.981 938.088 426.789 937.433 426.459C936.773 426.129 936.194 425.665 935.724 425.098C935.254 424.531 934.905 423.872 934.7 423.164C934.496 422.457 934.441 421.714 934.534 420.984L936.335 391.5C936.374 389.956 936.985 388.48 938.047 387.363C939.112 386.246 940.552 385.564 942.088 385.448L970.356 385.349C973.319 385.349 975.562 388.042 975.424 391.397L973.562 421.061C973.527 422.617 972.913 424.105 971.835 425.226C970.756 426.347 969.294 427.019 967.746 427.109Z" stroke="#FF2F89" stroke-width="1.63" stroke-miterlimit="10"/>
<path d="M897.019 397.813C896.987 398.521 896.693 399.19 896.194 399.686C895.695 400.186 895.026 400.48 894.319 400.506C893.983 400.503 893.65 400.426 893.343 400.285C893.036 400.144 892.761 399.939 892.537 399.686C892.313 399.433 892.143 399.136 892.041 398.812C891.939 398.489 891.903 398.15 891.939 397.813C891.971 397.109 892.268 396.443 892.767 395.947C893.266 395.451 893.935 395.159 894.636 395.13C894.975 395.134 895.307 395.21 895.615 395.348C895.922 395.489 896.194 395.691 896.418 395.944C896.642 396.197 896.811 396.494 896.917 396.814C897.019 397.138 897.054 397.477 897.019 397.813Z" fill="#3197FF"/>
<path d="M904.342 397.801C904.31 398.508 904.016 399.177 903.517 399.677C903.018 400.173 902.349 400.468 901.642 400.496C901.306 400.49 900.973 400.413 900.666 400.272C900.359 400.131 900.084 399.926 899.86 399.674C899.636 399.421 899.467 399.123 899.364 398.799C899.262 398.479 899.227 398.137 899.262 397.801C899.297 397.096 899.595 396.43 900.094 395.931C900.593 395.434 901.258 395.14 901.959 395.108C902.298 395.111 902.631 395.188 902.938 395.329C903.245 395.47 903.52 395.675 903.744 395.928C903.968 396.18 904.134 396.478 904.24 396.802C904.342 397.122 904.377 397.464 904.342 397.801Z" fill="#3197FF"/>
<path d="M896.555 406.035C896.526 406.743 896.232 407.415 895.733 407.915C895.231 408.414 894.562 408.705 893.855 408.731C893.519 408.721 893.189 408.645 892.886 408.501C892.582 408.356 892.31 408.155 892.086 407.902C891.865 407.649 891.695 407.351 891.593 407.031C891.491 406.711 891.452 406.371 891.487 406.035C891.519 405.331 891.82 404.662 892.322 404.166C892.825 403.669 893.493 403.378 894.197 403.355C894.533 403.362 894.863 403.439 895.167 403.58C895.47 403.72 895.742 403.925 895.963 404.175C896.184 404.428 896.35 404.723 896.453 405.043C896.555 405.363 896.59 405.702 896.555 406.035Z" fill="#3197FF"/>
<path d="M903.853 406.035C903.821 406.743 903.523 407.412 903.021 407.912C902.519 408.411 901.847 408.702 901.143 408.731C900.804 408.725 900.474 408.648 900.167 408.504C899.86 408.363 899.588 408.158 899.364 407.905C899.14 407.652 898.971 407.358 898.868 407.034C898.763 406.714 898.727 406.372 898.759 406.035C898.795 405.328 899.092 404.659 899.594 404.159C900.097 403.663 900.765 403.368 901.472 403.343C901.808 403.349 902.141 403.426 902.445 403.567C902.752 403.711 903.027 403.913 903.248 404.166C903.472 404.419 903.642 404.716 903.747 405.04C903.849 405.36 903.888 405.699 903.853 406.035Z" fill="#3197FF"/>
<path d="M896.018 414.552C895.986 415.259 895.691 415.929 895.189 416.428C894.69 416.927 894.021 417.219 893.317 417.248C892.981 417.238 892.649 417.161 892.345 417.017C892.041 416.876 891.766 416.671 891.545 416.418C891.321 416.166 891.152 415.871 891.046 415.551C890.94 415.227 890.905 414.888 890.934 414.552C890.966 413.844 891.264 413.175 891.766 412.679C892.268 412.183 892.94 411.894 893.647 411.872C893.983 411.878 894.316 411.952 894.62 412.093C894.924 412.234 895.199 412.436 895.419 412.688C895.643 412.941 895.813 413.236 895.915 413.559C896.018 413.88 896.053 414.219 896.018 414.552Z" fill="#3197FF"/>
<path d="M903.341 414.552C903.315 415.26 903.021 415.929 902.519 416.428C902.016 416.924 901.348 417.213 900.644 417.235C900.305 417.229 899.972 417.155 899.665 417.014C899.358 416.87 899.086 416.668 898.862 416.415C898.638 416.159 898.468 415.865 898.363 415.541C898.26 415.218 898.225 414.879 898.26 414.542C898.296 413.835 898.593 413.169 899.092 412.673C899.591 412.176 900.257 411.888 900.96 411.859C901.296 411.866 901.629 411.939 901.936 412.08C902.243 412.224 902.519 412.426 902.743 412.679C902.966 412.935 903.136 413.23 903.238 413.553C903.341 413.876 903.376 414.216 903.341 414.552Z" fill="#3197FF"/>
<path d="M1113.23 418.262L1004.9 418.058C1000.85 418.058 997.803 414.334 998.094 409.749L998.728 399.898C999.019 395.322 1002.53 391.599 1006.59 391.586L1115.07 391.32C1119.13 391.32 1122.14 395.134 1121.83 399.773L1121.14 409.797C1120.84 414.475 1117.23 418.262 1113.23 418.262Z" fill="#7B52FB" fill-opacity="0.21"/>
<path d="M959.086 397.766L952.623 416.041" stroke="#FF2F89" stroke-width="1.79" stroke-linecap="round" stroke-linejoin="round"/>
<path d="M949.334 399.101L942.315 406.432L948.458 414.273" stroke="#FF2F89" stroke-width="1.79" stroke-linecap="round" stroke-linejoin="round"/>
<path d="M963.382 399.008L969.567 406.279L962.496 414.222" stroke="#FF2F89" stroke-width="1.79" stroke-linecap="round" stroke-linejoin="round"/>
<path d="M1142.98 358.519L894.117 360.44C887.92 360.44 883.221 354.949 883.627 348.072L886.628 297.021C887.034 290.147 892.406 283.197 898.641 283.043L1148.46 279.332C1154.69 279.204 1159.33 284.926 1158.84 292.04L1155.12 345.418C1154.63 352.609 1149.19 358.468 1142.98 358.519Z" fill="#EEF9FF"/>
<path d="M919.495 360.236L894.406 360.437C888.071 360.437 883.205 355.087 883.598 348.393L886.641 295.446C886.807 292.225 888.154 289.181 890.423 286.898C892.691 284.612 895.721 283.248 898.929 283.069L924.108 282.56" fill="#7B52FB" fill-opacity="0.21"/>
<path d="M972.734 341.451L944.404 341.755C941.425 341.755 939.17 339.114 939.336 335.784L941.147 306.312C941.195 304.76 941.809 303.28 942.872 302.153C943.934 301.023 945.37 300.325 946.912 300.188L975.306 299.691C978.285 299.691 980.54 302.32 980.377 305.663L978.525 335.326C978.477 336.882 977.859 338.364 976.79 339.491C975.725 340.622 974.282 341.32 972.734 341.451Z" stroke="#FF2F89" stroke-width="1.63" stroke-miterlimit="10"/>
<path d="M901.694 313.161C901.655 313.872 901.358 314.544 900.859 315.05C900.359 315.553 899.691 315.854 898.981 315.895C898.645 315.895 898.312 315.825 898.005 315.687C897.698 315.549 897.422 315.351 897.195 315.101C896.971 314.848 896.799 314.554 896.693 314.234C896.591 313.913 896.552 313.574 896.587 313.238C896.623 312.53 896.92 311.858 897.423 311.355C897.922 310.856 898.59 310.555 899.297 310.52C899.633 310.516 899.966 310.584 900.276 310.718C900.583 310.853 900.862 311.051 901.086 311.301C901.313 311.551 901.486 311.845 901.588 312.169C901.694 312.489 901.729 312.828 901.694 313.161Z" fill="#3197FF"/>
<path d="M909.055 313.046C909.016 313.757 908.722 314.429 908.22 314.935C907.721 315.437 907.052 315.738 906.342 315.78C906.006 315.78 905.673 315.713 905.363 315.575C905.056 315.441 904.777 315.239 904.554 314.989C904.326 314.739 904.157 314.442 904.051 314.122C903.949 313.798 903.914 313.459 903.949 313.123C903.971 312.399 904.269 311.707 904.781 311.192C905.289 310.677 905.974 310.372 906.697 310.34C907.036 310.344 907.369 310.42 907.676 310.564C907.983 310.705 908.255 310.91 908.479 311.166C908.7 311.423 908.866 311.72 908.965 312.047C909.065 312.37 909.096 312.71 909.055 313.046Z" fill="#3197FF"/>
<path d="M901.207 321.386C901.169 322.097 900.871 322.77 900.372 323.272C899.873 323.778 899.204 324.079 898.494 324.117C898.158 324.121 897.822 324.05 897.515 323.913C897.208 323.778 896.93 323.576 896.706 323.327C896.479 323.077 896.309 322.779 896.203 322.459C896.098 322.139 896.063 321.796 896.101 321.46C896.133 320.752 896.43 320.08 896.933 319.577C897.432 319.075 898.104 318.777 898.811 318.742C899.147 318.739 899.479 318.809 899.787 318.944C900.094 319.081 900.369 319.28 900.596 319.529C900.82 319.779 900.993 320.07 901.098 320.391C901.204 320.711 901.239 321.05 901.207 321.386Z" fill="#3197FF"/>
<path d="M908.566 321.281C908.53 321.992 908.233 322.664 907.731 323.17C907.231 323.672 906.563 323.973 905.853 324.015C905.517 324.015 905.184 323.945 904.877 323.807C904.57 323.669 904.295 323.471 904.071 323.221C903.843 322.968 903.674 322.673 903.568 322.353C903.463 322.033 903.424 321.694 903.459 321.358C903.495 320.647 903.792 319.974 904.294 319.472C904.794 318.966 905.462 318.665 906.169 318.627C906.508 318.623 906.841 318.694 907.148 318.831C907.459 318.966 907.734 319.168 907.961 319.417C908.185 319.667 908.358 319.965 908.46 320.285C908.566 320.605 908.601 320.945 908.566 321.281Z" fill="#3197FF"/>
<path d="M900.692 329.938C900.66 330.645 900.366 331.314 899.867 331.817C899.367 332.32 898.702 332.617 897.995 332.656C897.659 332.659 897.323 332.589 897.016 332.451C896.706 332.317 896.43 332.115 896.203 331.865C895.979 331.615 895.807 331.318 895.704 330.997C895.599 330.677 895.563 330.335 895.599 329.998C895.634 329.291 895.931 328.619 896.43 328.116C896.933 327.61 897.601 327.315 898.312 327.28C898.648 327.28 898.98 327.351 899.287 327.488C899.595 327.626 899.867 327.825 900.094 328.074C900.318 328.327 900.487 328.622 900.59 328.942C900.695 329.262 900.73 329.601 900.692 329.938Z" fill="#3197FF"/>
<path d="M908.054 329.835C908.015 330.546 907.721 331.218 907.219 331.724C906.72 332.227 906.051 332.528 905.341 332.57C905.005 332.566 904.672 332.493 904.365 332.355C904.058 332.217 903.783 332.016 903.556 331.766C903.332 331.513 903.159 331.218 903.057 330.898C902.951 330.575 902.913 330.236 902.948 329.899C902.983 329.192 903.281 328.519 903.783 328.017C904.282 327.514 904.951 327.216 905.658 327.181C905.994 327.181 906.326 327.252 906.637 327.389C906.944 327.524 907.219 327.725 907.443 327.975C907.67 328.225 907.84 328.519 907.945 328.84C908.051 329.163 908.086 329.499 908.054 329.835Z" fill="#3197FF"/>
<path d="M1118.79 330.588L1009.99 331.859C1005.92 331.859 1002.86 328.235 1003.16 323.647L1003.78 313.811C1004.07 309.223 1007.58 305.448 1011.69 305.384L1120.65 303.607C1124.72 303.543 1127.76 307.28 1127.45 311.957L1126.75 321.994C1126.41 326.711 1122.86 330.537 1118.79 330.588Z" fill="#7B52FB" fill-opacity="0.21"/>
<path d="M950.025 310.926L971.678 310.468" stroke="#FF2F89" stroke-width="1.79" stroke-linecap="round" stroke-linejoin="round"/>
<path d="M949.612 317.928L971.265 317.496" stroke="#FF2F89" stroke-width="1.79" stroke-linecap="round" stroke-linejoin="round"/>
<path d="M949.225 324.931L970.865 324.524" stroke="#FF2F89" stroke-width="1.79" stroke-linecap="round" stroke-linejoin="round"/>
<path d="M948.812 331.933L970.44 331.552" stroke="#FF2F89" stroke-width="1.79" stroke-linecap="round" stroke-linejoin="round"/>
<path d="M840.421 445.599L471.5 444.071C470.022 444.049 468.564 443.726 467.217 443.121C465.867 442.519 464.654 441.645 463.653 440.556C462.651 439.467 461.88 438.187 461.384 436.791C460.892 435.392 460.684 433.909 460.78 432.43L466.698 299.551C466.817 296.461 468.093 293.532 470.269 291.342C472.444 289.152 475.362 287.861 478.443 287.73L850.367 283.334C856.59 283.219 861.315 288.659 860.922 295.51L852.319 433.269C851.925 440.108 846.605 445.637 840.421 445.599Z" fill="#EDF8FF"/>
<path d="M496.775 444.215L471.788 444.087C470.31 444.103 468.845 443.818 467.479 443.249C466.116 442.682 464.878 441.84 463.847 440.777C462.817 439.714 462.011 438.452 461.483 437.069C460.952 435.686 460.709 434.207 460.767 432.725L465.492 300.278C465.693 297.194 467.04 294.297 469.267 292.161C471.494 290.026 474.437 288.803 477.515 288.739L502.706 288.217" fill="#7B52FB" fill-opacity="0.21"/>
<path d="M479.575 358.113C479.537 358.795 479.242 359.435 478.75 359.906C478.257 360.38 477.608 360.645 476.926 360.655C476.6 360.664 476.277 360.607 475.973 360.482C475.672 360.36 475.397 360.178 475.166 359.947C474.939 359.714 474.76 359.438 474.642 359.134C474.523 358.83 474.469 358.503 474.482 358.177C474.517 357.495 474.811 356.851 475.301 356.377C475.794 355.907 476.446 355.641 477.128 355.635C477.454 355.622 477.78 355.676 478.084 355.798C478.388 355.92 478.667 356.102 478.897 356.333C479.124 356.566 479.303 356.845 479.422 357.152C479.537 357.46 479.591 357.786 479.575 358.113Z" fill="#3197FF"/>
<path d="M486.924 358.036C486.886 358.718 486.592 359.358 486.099 359.832C485.609 360.303 484.957 360.571 484.275 360.578C483.949 360.591 483.623 360.536 483.319 360.415C483.015 360.296 482.74 360.114 482.509 359.88C482.279 359.646 482.1 359.368 481.985 359.06C481.866 358.756 481.815 358.426 481.831 358.1C481.866 357.418 482.16 356.774 482.653 356.304C483.143 355.83 483.799 355.564 484.48 355.558C484.803 355.551 485.129 355.609 485.43 355.731C485.734 355.852 486.006 356.035 486.236 356.265C486.467 356.499 486.646 356.774 486.764 357.078C486.883 357.386 486.937 357.709 486.924 358.036Z" fill="#3197FF"/>
<path d="M479.265 365.765C479.23 366.447 478.936 367.09 478.443 367.561C477.95 368.035 477.298 368.301 476.616 368.307C476.287 368.317 475.957 368.256 475.65 368.131C475.343 368.003 475.064 367.817 474.834 367.577C474.604 367.337 474.428 367.052 474.313 366.741C474.197 366.428 474.149 366.095 474.172 365.765C474.21 365.083 474.505 364.443 474.997 363.969C475.487 363.498 476.139 363.232 476.821 363.223C477.15 363.213 477.48 363.274 477.787 363.399C478.094 363.524 478.373 363.713 478.603 363.953C478.833 364.19 479.009 364.475 479.124 364.788C479.24 365.099 479.288 365.432 479.265 365.765Z" fill="#3197FF"/>
<path d="M486.614 365.714C486.575 366.395 486.281 367.036 485.788 367.51C485.299 367.98 484.646 368.246 483.965 368.256C483.635 368.265 483.306 368.204 482.999 368.08C482.691 367.955 482.413 367.766 482.183 367.526C481.952 367.289 481.776 367.004 481.661 366.69C481.546 366.379 481.498 366.046 481.52 365.714C481.556 365.032 481.85 364.388 482.343 363.917C482.832 363.443 483.488 363.178 484.169 363.171C484.499 363.162 484.829 363.223 485.136 363.347C485.443 363.472 485.721 363.661 485.952 363.901C486.182 364.141 486.358 364.426 486.473 364.737C486.588 365.051 486.636 365.384 486.614 365.714Z" fill="#3197FF"/>
<path d="M478.942 373.731C478.9 374.413 478.603 375.053 478.107 375.527C477.614 375.997 476.962 376.263 476.28 376.273C475.951 376.279 475.621 376.218 475.317 376.093C475.01 375.965 474.735 375.776 474.504 375.54C474.277 375.299 474.101 375.014 473.986 374.704C473.874 374.393 473.826 374.06 473.845 373.731C473.881 373.049 474.175 372.405 474.668 371.934C475.16 371.461 475.813 371.195 476.494 371.188C476.827 371.179 477.157 371.24 477.464 371.365C477.771 371.489 478.046 371.678 478.276 371.918C478.507 372.159 478.686 372.444 478.798 372.754C478.913 373.068 478.961 373.398 478.942 373.731Z" fill="#3197FF"/>
<path d="M486.278 373.679C486.239 374.364 485.948 375.005 485.456 375.478C484.963 375.949 484.31 376.218 483.629 376.221C483.296 376.231 482.967 376.173 482.659 376.045C482.352 375.92 482.077 375.731 481.847 375.494C481.616 375.254 481.437 374.969 481.322 374.656C481.21 374.345 481.162 374.012 481.181 373.679C481.217 372.997 481.508 372.354 482 371.88C482.493 371.406 483.149 371.14 483.83 371.14C484.163 371.131 484.493 371.188 484.8 371.313C485.107 371.441 485.382 371.63 485.612 371.867C485.843 372.107 486.022 372.392 486.134 372.703C486.249 373.016 486.297 373.349 486.278 373.679Z" fill="#3197FF"/>
<path d="M254.443 851.207L17.2084 826.983C7.59117 826.362 0.0520303 817.477 0.381494 807.133L1.7626 761.496C2.09203 751.164 10.1633 743.144 19.8059 743.602L257.421 758.701C267.051 759.159 274.564 768.383 274.184 779.3L272.55 832.615C272.17 843.478 264.073 851.815 254.443 851.207Z" fill="#FF6501" fill-opacity="0.4"/>
<path d="M233.878 815.268L38.2539 797.614C36.1654 797.406 34.2394 796.391 32.8807 794.787C31.522 793.183 30.8364 791.111 30.9682 789.011C30.9506 787.983 31.1412 786.959 31.528 786.008C31.9152 785.054 32.4907 784.189 33.2201 783.463C33.9496 782.739 34.8176 782.169 35.7719 781.791C36.7263 781.414 37.7471 781.231 38.7732 781.26L234.448 798.264C235.732 798.43 236.904 799.08 237.724 800.086C238.543 801.088 238.949 802.369 238.858 803.665L238.63 810.376C238.645 811.01 238.533 811.644 238.301 812.236C238.069 812.828 237.722 813.366 237.279 813.824C236.837 814.279 236.308 814.641 235.724 814.89C235.14 815.137 234.512 815.265 233.878 815.268Z" fill="#FF6501" fill-opacity="0.5"/>
<g style="mix-blend-mode:multiply" opacity="0.6">
<path d="M167.574 567.297C167.59 582.915 173.696 597.906 184.588 609.07C195.479 620.231 210.292 626.676 225.86 627.028L760.16 667.007C798.97 669.245 868.241 632.9 869.371 590.631L871.182 459.503C871.182 459.503 833.868 413.281 816.077 412.01C798.289 410.738 165.584 524.926 165.584 524.926L167.574 567.297Z" fill="#E9F7FF"/>
</g>
<path d="M797.278 605.817L192.729 577.223C177.651 576.765 165.702 563.027 166.12 548.107L168.958 430.96C169.262 416.002 181.933 403.89 197.138 403.877L807.541 409.938C822.744 409.938 834.3 423.549 833.35 440.325L826.267 576.307C825.329 593.071 812.343 606.275 797.278 605.817Z" fill="#F8FCFF"/>
<path d="M254.407 580.3L193.499 577.54C178.04 577.082 165.8 564.909 166.168 550.37L168.93 430.25C169.31 415.698 182.26 403.89 197.87 403.877L259.412 403.813" fill="#1B1559"/>
<path d="M382.378 541.969L313.474 539.097C311.747 539.049 310.048 538.659 308.474 537.948C306.9 537.237 305.483 536.219 304.305 534.954C303.125 533.69 302.21 532.201 301.609 530.577C301.007 528.954 300.734 527.229 300.803 525.5L302.919 460.506C303.048 456.964 304.539 453.609 307.082 451.147C309.623 448.685 313.02 447.308 316.552 447.302L385.811 448.979C387.545 449.002 389.256 449.376 390.843 450.081C392.43 450.785 393.857 451.803 395.04 453.074C396.224 454.345 397.139 455.844 397.731 457.48C398.323 459.116 398.579 460.854 398.483 462.59L395.949 528.676C395.869 532.233 394.404 535.614 391.867 538.098C389.33 540.583 385.923 541.972 382.378 541.969Z" stroke="#FF2F89" stroke-width="4.01" stroke-miterlimit="10"/>
<path d="M207.11 473.264C207.008 474.865 206.291 476.367 205.109 477.446C203.928 478.528 202.373 479.107 200.774 479.059C199.978 479.095 199.183 478.963 198.437 478.682C197.691 478.4 197.01 477.968 196.434 477.414C195.858 476.863 195.399 476.197 195.084 475.464C194.77 474.728 194.606 473.937 194.604 473.14C194.705 471.539 195.422 470.037 196.604 468.958C197.786 467.876 199.34 467.296 200.939 467.344C201.736 467.309 202.531 467.441 203.276 467.722C204.022 468.004 204.703 468.436 205.28 468.99C205.855 469.541 206.315 470.207 206.629 470.94C206.944 471.676 207.107 472.467 207.11 473.264Z" fill="#43A1FF"/>
<path d="M225.005 473.456C224.903 475.07 224.178 476.581 222.983 477.67C221.789 478.755 220.218 479.331 218.606 479.277C217.817 479.29 217.033 479.149 216.3 478.858C215.566 478.566 214.898 478.131 214.335 477.577C213.771 477.023 213.323 476.36 213.016 475.634C212.71 474.904 212.551 474.119 212.549 473.328C212.651 471.715 213.376 470.203 214.572 469.121C215.767 468.036 217.337 467.46 218.948 467.52C219.737 467.501 220.521 467.642 221.255 467.93C221.989 468.222 222.658 468.657 223.222 469.208C223.787 469.762 224.235 470.421 224.541 471.151C224.847 471.881 225.005 472.666 225.005 473.456Z" fill="#43A1FF"/>
<path d="M206.595 491.213C206.497 492.811 205.78 494.309 204.597 495.388C203.413 496.467 201.857 497.037 200.26 496.982C199.471 496.995 198.688 496.851 197.956 496.56C197.223 496.265 196.556 495.83 195.992 495.276C195.429 494.725 194.981 494.062 194.673 493.336C194.366 492.606 194.206 491.824 194.203 491.034C194.301 489.433 195.018 487.934 196.202 486.859C197.385 485.78 198.941 485.207 200.539 485.264C201.328 485.245 202.114 485.386 202.849 485.677C203.584 485.965 204.253 486.401 204.818 486.958C205.382 487.512 205.83 488.171 206.136 488.905C206.441 489.635 206.597 490.419 206.595 491.213Z" fill="#43A1FF"/>
<path d="M224.529 491.466C224.431 493.067 223.714 494.565 222.531 495.644C221.348 496.726 219.792 497.299 218.194 497.248C217.404 497.261 216.619 497.12 215.886 496.826C215.153 496.534 214.485 496.096 213.922 495.542C213.359 494.988 212.912 494.325 212.608 493.592C212.303 492.862 212.148 492.077 212.149 491.287C212.248 489.686 212.964 488.184 214.146 487.102C215.329 486.02 216.885 485.444 218.485 485.492C219.275 485.479 220.059 485.623 220.793 485.917C221.527 486.212 222.194 486.651 222.757 487.204C223.32 487.762 223.766 488.424 224.071 489.157C224.375 489.887 224.531 490.672 224.529 491.466Z" fill="#43A1FF"/>
<path d="M206.095 509.866C206.001 511.467 205.284 512.965 204.1 514.041C202.915 515.12 201.357 515.687 199.76 515.623C198.97 515.635 198.186 515.488 197.452 515.193C196.719 514.899 196.051 514.463 195.487 513.906C194.924 513.349 194.476 512.69 194.17 511.957C193.864 511.227 193.705 510.442 193.704 509.651C193.802 508.054 194.52 506.555 195.704 505.483C196.888 504.41 198.444 503.844 200.039 503.904C200.828 503.892 201.613 504.036 202.346 504.33C203.079 504.625 203.747 505.06 204.311 505.614C204.875 506.168 205.323 506.831 205.629 507.561C205.935 508.291 206.094 509.075 206.095 509.866Z" fill="#43A1FF"/>
<path d="M223.991 510.148C223.896 511.748 223.18 513.247 221.996 514.326C220.812 515.405 219.254 515.975 217.656 515.917C216.866 515.923 216.083 515.776 215.351 515.478C214.619 515.184 213.952 514.742 213.39 514.188C212.829 513.631 212.382 512.968 212.077 512.238C211.771 511.505 211.613 510.724 211.612 509.93C211.713 508.332 212.431 506.834 213.614 505.758C214.796 504.682 216.351 504.109 217.947 504.16C218.737 504.151 219.522 504.298 220.254 504.596C220.987 504.89 221.654 505.329 222.217 505.886C222.779 506.443 223.225 507.106 223.53 507.839C223.834 508.569 223.991 509.353 223.991 510.148Z" fill="#43A1FF"/>
<path d="M737.298 532.422L472.479 522.141C470.096 522.068 467.754 521.514 465.588 520.512C463.425 519.51 461.483 518.082 459.884 516.311C458.281 514.541 457.052 512.463 456.269 510.206C455.485 507.948 455.165 505.553 455.325 503.168L456.211 478.538C456.614 468.244 465.003 459.971 474.924 460.061L740.644 465.004C750.578 465.094 758.141 473.902 757.559 484.791L756.292 513.145C755.671 523.986 747.184 532.614 737.298 532.422Z" fill="#7B52FB" fill-opacity="0.21"/>
<path d="M302.067 507.516L335.556 485.085L377.345 540.621" stroke="#FF2F89" stroke-width="4.04" stroke-miterlimit="10"/>
<path d="M396.851 520.668L376.705 500.094L357.279 513.692" stroke="#FF2F89" stroke-width="4.04" stroke-miterlimit="10"/>
<path d="M372.924 477.244C372.792 479.594 371.756 481.8 370.031 483.398C368.307 484.992 366.032 485.853 363.687 485.796C362.542 485.808 361.406 485.588 360.347 485.149C359.291 484.713 358.328 484.067 357.525 483.25C356.719 482.434 356.089 481.464 355.663 480.398C355.241 479.328 355.033 478.188 355.059 477.042C355.193 474.689 356.236 472.483 357.961 470.889C359.685 469.291 361.96 468.427 364.308 468.475C365.453 468.462 366.589 468.683 367.648 469.121C368.707 469.557 369.667 470.207 370.473 471.023C371.276 471.843 371.906 472.816 372.329 473.885C372.751 474.952 372.952 476.095 372.924 477.244Z" stroke="#FF2F89" stroke-width="4.04" stroke-miterlimit="10"/>
<g style="mix-blend-mode:multiply" opacity="0.6">
<path d="M384.063 805.557L965.27 851.614C984.734 853.365 1001.82 839.972 1002.57 822.382L1009.44 686.147C1009.44 686.147 985.48 653.205 967.628 651.832C949.776 650.462 384.012 753.77 384.012 753.77L384.063 805.557Z" fill="#E9F7FF"/>
</g>
<path d="M952.393 821.646L322.577 767.368C316.731 766.871 311.302 764.137 307.415 759.729C303.531 755.323 301.486 749.582 301.709 743.704L304.699 634.892C304.769 632.004 305.409 629.161 306.58 626.523C307.754 623.884 309.434 621.506 311.526 619.52C313.619 617.539 316.085 615.989 318.776 614.965C321.47 613.94 324.336 613.463 327.216 613.556L960.756 646.927C972.791 647.41 981.916 658.709 981.142 672.153L975.428 798.68C974.628 812.178 964.326 822.497 952.393 821.646Z" fill="#F3FBFF"/>
<path d="M371.42 770.543L323.142 767.406C310.902 766.605 301.286 756.274 301.679 744.312L304.721 634.382C305.111 622.437 315.438 613.136 327.781 613.632L376.423 615.563" fill="#1B1559"/>
<path d="M472.975 740.019L418.427 735.508C415.612 735.268 412.998 733.942 411.136 731.81C409.274 729.678 408.308 726.902 408.446 724.071L410.282 670.594C410.307 669.195 410.608 667.815 411.171 666.534C411.731 665.253 412.537 664.097 413.545 663.131C414.553 662.164 415.743 661.408 417.045 660.902C418.347 660.4 419.733 660.159 421.128 660.198L476.107 663.083C478.945 663.291 481.588 664.616 483.456 666.771C485.325 668.926 486.265 671.734 486.08 674.583L483.824 729.674C483.802 731.073 483.504 732.453 482.944 733.734C482.384 735.015 481.575 736.171 480.567 737.131C479.556 738.095 478.366 738.847 477.061 739.343C475.759 739.84 474.37 740.07 472.975 740.019Z" stroke="#FF2F89" stroke-width="3.21" stroke-miterlimit="10"/>
<path d="M436.606 686.516L439.76 686.682L449.732 712.888L445.679 712.657L443.359 706.19L431.132 705.527L428.345 711.703L424.292 711.489L436.606 686.516ZM442.208 703.036L437.872 691.065H437.796L432.475 702.505L442.208 703.036Z" fill="#FF2F89"/>
<path d="M452.96 685.587L456.23 685.753L455.724 698.461H455.788C456.451 697.564 457.35 696.873 458.386 696.466C459.496 696.005 460.696 695.8 461.896 695.868C463.134 695.922 464.353 696.22 465.479 696.745C466.503 697.241 467.411 697.942 468.154 698.803C468.893 699.671 469.456 700.676 469.801 701.765C470.172 702.93 470.332 704.153 470.268 705.373C470.236 706.59 469.977 707.787 469.51 708.908C469.069 709.948 468.432 710.893 467.635 711.69C466.826 712.475 465.856 713.08 464.798 713.458C463.633 713.874 462.392 714.043 461.16 713.954C459.983 713.887 458.837 713.56 457.801 713C456.767 712.484 455.894 711.697 455.267 710.723H455.19L455.104 713.192L451.834 713.012L452.96 685.587ZM460.882 710.864C461.688 710.919 462.497 710.813 463.262 710.547C463.943 710.298 464.567 709.907 465.089 709.404C465.607 708.882 466.016 708.258 466.292 707.573C466.589 706.811 466.759 706.004 466.784 705.184C466.829 704.358 466.727 703.532 466.48 702.745C466.266 702.031 465.914 701.365 465.444 700.785C464.951 700.254 464.362 699.822 463.707 699.514C462.977 699.162 462.184 698.967 461.374 698.944C460.568 698.887 459.755 698.999 458.994 699.274C458.309 699.514 457.689 699.898 457.167 700.404C456.627 700.923 456.195 701.544 455.9 702.236C455.603 702.998 455.436 703.804 455.408 704.624C455.363 705.45 455.465 706.276 455.712 707.064C455.923 707.778 456.278 708.437 456.751 709.01C457.234 709.551 457.826 709.984 458.485 710.281C459.234 710.646 460.05 710.845 460.882 710.864Z" fill="#FF2F89"/>
<path d="M904.774 757.327L544.226 728.784C536.398 728.339 530.351 721.161 530.719 712.849L531.506 694.904C531.874 686.541 538.538 680.073 546.38 680.454L907.497 703.33C915.341 703.711 921.321 711.082 920.841 719.851L919.814 742.433C919.369 751.074 912.606 757.772 904.774 757.327Z" fill="#7B52FB" fill-opacity="0.21"/>
<path d="M334.596 678.015C334.568 678.649 334.411 679.273 334.142 679.846C333.87 680.419 333.486 680.935 333.016 681.361C332.542 681.783 331.992 682.11 331.394 682.318C330.796 682.529 330.159 682.616 329.529 682.577C328.227 682.523 327.001 681.963 326.112 681.012C325.219 680.061 324.736 678.796 324.765 677.493C324.794 676.859 324.95 676.238 325.222 675.665C325.494 675.092 325.878 674.58 326.349 674.154C326.822 673.731 327.372 673.408 327.971 673.2C328.566 672.991 329.199 672.905 329.833 672.943C331.131 672.988 332.36 673.549 333.253 674.496C334.145 675.447 334.628 676.709 334.596 678.015Z" fill="#3197FF"/>
<path d="M348.794 678.726C348.762 679.36 348.606 679.984 348.334 680.557C348.062 681.13 347.681 681.643 347.207 682.068C346.737 682.494 346.187 682.818 345.589 683.029C344.99 683.237 344.357 683.327 343.723 683.288C342.425 683.24 341.196 682.677 340.307 681.726C339.417 680.775 338.937 679.51 338.973 678.204C339.001 677.57 339.158 676.946 339.427 676.373C339.699 675.796 340.083 675.281 340.553 674.855C341.026 674.429 341.577 674.103 342.175 673.891C342.773 673.68 343.407 673.594 344.04 673.629C345.342 673.686 346.568 674.253 347.454 675.204C348.343 676.158 348.823 677.423 348.794 678.726Z" fill="#3197FF"/>
<path d="M334.097 692.733C334.065 693.367 333.911 693.988 333.64 694.561C333.368 695.138 332.987 695.65 332.513 696.072C332.043 696.498 331.49 696.822 330.891 697.03C330.293 697.238 329.66 697.321 329.026 697.283C327.73 697.222 326.508 696.658 325.622 695.707C324.733 694.76 324.253 693.498 324.275 692.198C324.304 691.565 324.461 690.94 324.733 690.367C325.001 689.794 325.385 689.279 325.859 688.856C326.329 688.433 326.879 688.107 327.481 687.899C328.079 687.694 328.713 687.607 329.343 687.649C330.642 687.706 331.861 688.273 332.75 689.221C333.636 690.172 334.119 691.43 334.097 692.733Z" fill="#3197FF"/>
<path d="M348.267 693.47C348.241 694.104 348.088 694.728 347.816 695.304C347.544 695.881 347.163 696.393 346.69 696.819C346.219 697.244 345.666 697.571 345.068 697.779C344.466 697.987 343.833 698.074 343.199 698.032C341.903 697.971 340.681 697.408 339.795 696.457C338.906 695.509 338.423 694.251 338.448 692.948C338.477 692.314 338.631 691.69 338.903 691.116C339.174 690.54 339.558 690.028 340.029 689.602C340.502 689.176 341.052 688.85 341.651 688.641C342.249 688.433 342.882 688.347 343.516 688.385C344.812 688.446 346.034 689.01 346.923 689.957C347.809 690.908 348.292 692.167 348.267 693.47Z" fill="#3197FF"/>
<path d="M333.556 708.008C333.531 708.642 333.377 709.263 333.105 709.839C332.833 710.413 332.452 710.925 331.979 711.347C331.505 711.773 330.955 712.097 330.354 712.302C329.755 712.506 329.122 712.59 328.489 712.545C327.193 712.481 325.974 711.917 325.088 710.966C324.201 710.019 323.715 708.761 323.738 707.461C323.766 706.827 323.923 706.206 324.195 705.632C324.467 705.059 324.848 704.547 325.321 704.128C325.795 703.705 326.345 703.382 326.943 703.177C327.542 702.975 328.175 702.892 328.805 702.937C330.101 702.994 331.32 703.558 332.206 704.505C333.096 705.453 333.579 706.708 333.556 708.008Z" fill="#3197FF"/>
<path d="M347.729 708.793C347.703 709.427 347.55 710.051 347.278 710.624C347.006 711.2 346.622 711.713 346.152 712.135C345.678 712.558 345.125 712.881 344.527 713.086C343.928 713.291 343.292 713.374 342.661 713.33C341.366 713.269 340.147 712.702 339.261 711.754C338.371 710.807 337.888 709.548 337.91 708.248C337.939 707.611 338.093 706.99 338.365 706.417C338.637 705.844 339.021 705.329 339.491 704.906C339.964 704.48 340.515 704.157 341.113 703.949C341.711 703.741 342.345 703.657 342.978 703.699C344.277 703.757 345.499 704.323 346.389 705.274C347.275 706.228 347.758 707.49 347.729 708.793Z" fill="#3197FF"/>
<path d="M1421.05 752.915C1421.87 746.867 1420.26 740.742 1416.57 735.885C1412.87 731.028 1407.41 727.836 1401.36 727.014C1400.39 726.885 1399.41 726.821 1398.43 726.818C1398.43 726.818 1308.34 722.899 1306.08 804.401L1367.34 815.636C1367.34 815.636 1347.8 768.895 1397.28 772.586C1398.17 772.708 1400 772.67 1400.85 772.65C1411.83 772.545 1419.52 764.166 1421.05 752.915Z" fill="url(#paint0_linear_30_2488)"/>
<path d="M1435.59 838.435C1429.05 838.105 1315.66 835.032 1289.97 911.238C1282.01 934.867 1285.18 957.246 1310.76 977.737L1344.41 982.319L1358.18 950.616L1357.36 936.531C1357.36 936.531 1355.98 960.137 1339.37 954.448C1334.45 952.7 1326.49 947.667 1325.47 935.084C1323.36 907.316 1373.46 882.513 1436.15 883.96C1441.03 883.182 1445.52 880.851 1448.97 877.32C1452.42 873.788 1454.64 869.239 1455.31 864.343C1456.98 851.745 1448.27 839.098 1435.59 838.435Z" fill="url(#paint1_linear_30_2488)"/>
<path d="M1370.82 729.684C1370.82 729.684 1335.26 766.096 1372.6 824.466C1388.14 848.764 1421.38 889.025 1413.17 932.436C1410.44 946.898 1402.73 975.15 1380.59 987.368C1362.88 997.152 1332.99 995.446 1310.26 977.19C1310.26 977.19 1357.52 972.602 1357.38 936.426C1357.28 908.75 1342.36 873.705 1314.05 834.568C1290.64 802.243 1304.34 740.06 1370.82 729.684Z" fill="url(#paint2_linear_30_2488)"/>
<defs>
<linearGradient id="paint0_linear_30_2488" x1="1311.32" y1="761.348" x2="1417.93" y2="775.84" gradientUnits="userSpaceOnUse">
<stop stop-color="#1B1559"/>
<stop offset="1" stop-color="#7B52FB"/>
</linearGradient>
<linearGradient id="paint1_linear_30_2488" x1="1290.49" y1="896.802" x2="1447.95" y2="918.206" gradientUnits="userSpaceOnUse">
<stop stop-color="#1B1559"/>
<stop offset="1" stop-color="#7B52FB"/>
</linearGradient>
<linearGradient id="paint2_linear_30_2488" x1="1295.66" y1="852.609" x2="1421.79" y2="869.751" gradientUnits="userSpaceOnUse">
<stop stop-color="#1B1559"/>
<stop offset="1" stop-color="#003CBE"/>
</linearGradient>
</defs>
</svg>
