<svg width="1621" height="1050" viewBox="0 0 1621 1050" fill="none" xmlns="http://www.w3.org/2000/svg">
<g opacity="0.6">
<path d="M1571.35 217.442L1254.5 220.467C1247.09 220.467 1242.12 213.121 1243.41 203.946L1244.09 199.104C1245.35 189.928 1252.41 182.417 1259.84 182.328L1577.09 177.753C1584.51 177.639 1597.78 185.62 1596.4 195.202L1595.66 200.286C1594.28 209.843 1578.76 217.379 1571.35 217.442Z" fill="#7B52FB" fill-opacity="0.15"/>
<path d="M1500.24 404.755L1181.27 403.612C1173.91 403.51 1168.97 395.986 1170.24 386.874L1170.91 382.046C1172.18 372.908 1179.18 365.525 1186.56 365.64L1505.94 365.221C1513.31 365.221 1522.61 373.606 1521.23 383.15L1520.49 388.234C1519.13 397.74 1507.61 404.845 1500.24 404.755Z" fill="#7B52FB" fill-opacity="0.21"/>
<path d="M1538.89 517.633L1220.1 508.457C1212.75 508.265 1207.84 500.642 1209.14 491.428L1209.82 486.574C1211.09 477.36 1218.11 470.05 1225.46 470.191L1544.67 477.817C1552.03 477.955 1562.04 487.131 1560.65 496.752L1559.91 501.836C1558.51 511.419 1546.29 517.81 1538.89 517.633Z" fill="#7B52FB" fill-opacity="0.21"/>
<path d="M1599.37 317.282L1279.62 318.694C1272.24 318.694 1267.29 311.17 1268.59 301.93L1269.27 297.063C1270.54 287.823 1277.62 280.325 1285.01 280.312L1605.17 277.302C1612.57 277.302 1622.05 285.79 1620.64 295.424L1619.9 300.508C1618.52 310.19 1606.76 317.282 1599.37 317.282Z" fill="#7B52FB" fill-opacity="0.21"/>
</g>
<path d="M250.778 929.251L1284.78 1048.84C1303.49 1050.96 1319.69 1034.32 1320.93 1011.68L1373.64 25.4899C1374.45 11.0276 1365.06 -0.0924524 1352.67 0.657381L250.993 68.5849C238.576 69.4109 228.364 79.6416 228.185 91.4606L217.352 892.294C217.125 910.72 232.037 927.305 250.778 929.251Z" fill="#7B52FB" fill-opacity="0.21"/>
<path d="M1354.47 0.428865L252.787 68.3439C240.384 69.1699 230.171 79.4002 229.979 91.2192L229.372 129.091L1372.87 71.7242L1375.41 25.287C1376.25 10.7991 1366.86 -0.320969 1354.47 0.428865Z" fill="#536171"/>
<path opacity="0.4" d="M1057.05 1023.82L1285.47 1049.32C1304.18 1051.44 1320.38 1034.81 1321.62 1012.16L1374.38 25.299C1375.19 10.8364 1365.8 -0.283369 1353.41 0.466464L1102.82 15.9834L1057.05 1023.82Z" fill="#7B52FB" fill-opacity="0.21"/>
<path d="M1354.47 0.428865L252.787 68.3439C240.384 69.1699 230.171 79.4002 229.979 91.2192L229.372 129.091L1372.87 83.1366L1375.41 25.287C1376.25 10.7991 1366.86 -0.320969 1354.47 0.428865Z" fill="#1B1559"/>
<path opacity="0.2" d="M1372.51 81.7266L229.33 129.066L228.722 166.785L1369.54 130.197L1372.51 81.7266Z" fill="#7B52FB" fill-opacity="0.21"/>
<path d="M992.576 964.694L269.481 891.34C268.112 891.19 266.845 890.54 265.92 889.515C264.999 888.487 264.484 887.155 264.478 885.772L267.011 535.015C267.031 534.343 267.184 533.683 267.459 533.069C267.734 532.457 268.131 531.907 268.621 531.446C269.11 530.988 269.686 530.632 270.316 530.399C270.943 530.165 271.612 530.059 272.281 530.085L1007.65 551.613C1008.37 551.677 1009.07 551.879 1009.7 552.215C1010.34 552.548 1010.9 553.006 1011.36 553.563C1011.81 554.117 1012.15 554.757 1012.36 555.445C1012.57 556.134 1012.64 556.857 1012.56 557.574L997.938 959.421C997.797 962.622 995.404 964.985 992.576 964.694Z" fill="#7B52FB" fill-opacity="0.16"/>
<path d="M274.549 574.402C274.542 574.629 274.491 574.854 274.398 575.065C274.306 575.273 274.171 575.459 274.005 575.615C273.839 575.769 273.643 575.891 273.429 575.968C273.215 576.045 272.988 576.08 272.76 576.067C272.296 576.057 271.855 575.865 271.532 575.532C271.205 575.199 271.026 574.754 271.026 574.287C271.033 574.06 271.087 573.835 271.18 573.627C271.276 573.419 271.41 573.23 271.577 573.073C271.746 572.92 271.941 572.798 272.156 572.718C272.37 572.638 272.597 572.603 272.824 572.609C273.288 572.625 273.73 572.817 274.05 573.153C274.373 573.49 274.552 573.938 274.549 574.402Z" fill="#1A8CFF"/>
<path d="M279.633 574.565C279.63 574.796 279.578 575.02 279.486 575.228C279.393 575.436 279.258 575.625 279.092 575.782C278.926 575.939 278.731 576.061 278.516 576.138C278.302 576.218 278.075 576.253 277.848 576.243C277.384 576.23 276.942 576.035 276.616 575.702C276.293 575.366 276.11 574.918 276.11 574.45C276.117 574.223 276.171 573.999 276.264 573.791C276.36 573.583 276.494 573.394 276.661 573.24C276.83 573.083 277.025 572.965 277.24 572.885C277.454 572.808 277.684 572.776 277.912 572.785C278.372 572.801 278.811 572.993 279.134 573.326C279.454 573.656 279.633 574.101 279.633 574.565Z" fill="#1A8CFF"/>
<path d="M274.459 579.688C274.453 579.915 274.402 580.14 274.306 580.351C274.213 580.559 274.079 580.745 273.909 580.898C273.743 581.055 273.544 581.174 273.33 581.254C273.116 581.331 272.889 581.363 272.661 581.353C272.198 581.337 271.759 581.138 271.439 580.805C271.116 580.472 270.937 580.024 270.937 579.56C270.943 579.333 270.991 579.109 271.087 578.9C271.18 578.692 271.311 578.503 271.481 578.35C271.647 578.193 271.842 578.074 272.057 577.994C272.271 577.918 272.498 577.882 272.725 577.895C273.189 577.908 273.631 578.103 273.954 578.439C274.28 578.772 274.459 579.221 274.459 579.688Z" fill="#1A8CFF"/>
<path d="M279.546 579.864C279.54 580.095 279.486 580.319 279.39 580.527C279.297 580.732 279.159 580.921 278.993 581.074C278.827 581.228 278.628 581.35 278.417 581.427C278.203 581.507 277.976 581.542 277.748 581.529C277.284 581.516 276.843 581.321 276.52 580.988C276.2 580.652 276.021 580.203 276.024 579.739C276.03 579.512 276.078 579.285 276.171 579.076C276.267 578.868 276.398 578.683 276.565 578.526C276.734 578.372 276.929 578.25 277.144 578.174C277.355 578.097 277.585 578.062 277.812 578.074C278.276 578.084 278.721 578.276 279.044 578.612C279.37 578.948 279.55 579.397 279.546 579.864Z" fill="#1A8CFF"/>
<path d="M274.36 585.166C274.354 585.393 274.306 585.618 274.213 585.826C274.12 586.034 273.986 586.223 273.82 586.376C273.653 586.533 273.455 586.652 273.241 586.732C273.029 586.809 272.802 586.844 272.575 586.831C272.108 586.818 271.667 586.623 271.343 586.287C271.02 585.954 270.838 585.506 270.838 585.038C270.844 584.811 270.895 584.587 270.991 584.379C271.084 584.17 271.222 583.985 271.388 583.831C271.558 583.677 271.753 583.559 271.967 583.482C272.182 583.405 272.409 583.373 272.636 583.386C273.1 583.396 273.541 583.588 273.861 583.921C274.184 584.254 274.364 584.702 274.36 585.166Z" fill="#1A8CFF"/>
<path d="M279.447 585.355C279.441 585.586 279.39 585.81 279.294 586.018C279.201 586.226 279.063 586.415 278.897 586.568C278.731 586.722 278.532 586.844 278.318 586.921C278.104 586.997 277.876 587.033 277.646 587.02C277.182 587.007 276.744 586.812 276.421 586.479C276.101 586.143 275.922 585.694 275.925 585.23C275.928 585 275.979 584.775 276.072 584.567C276.165 584.359 276.299 584.174 276.466 584.017C276.632 583.863 276.83 583.741 277.041 583.665C277.256 583.584 277.483 583.552 277.71 583.565C278.177 583.578 278.619 583.773 278.942 584.106C279.265 584.443 279.447 584.891 279.447 585.355Z" fill="#1A8CFF"/>
<path d="M993.005 586.219L925.052 583.818C924.31 583.745 923.629 583.38 923.155 582.803C922.678 582.227 922.451 581.487 922.518 580.745C922.518 579.989 922.813 579.265 923.337 578.724C923.865 578.186 924.579 577.876 925.331 577.86L993.296 580.184C993.667 580.219 994.029 580.332 994.355 580.508C994.685 580.684 994.973 580.924 995.21 581.212C995.446 581.503 995.622 581.836 995.728 582.192C995.833 582.55 995.869 582.925 995.83 583.3C995.833 584.058 995.542 584.791 995.014 585.339C994.483 585.883 993.763 586.2 993.005 586.219Z" fill="#FF2F89"/>
<path d="M1009.73 489.062L286.815 475.733C285.087 475.733 283.382 475.394 281.789 474.731C280.196 474.068 278.749 473.095 277.53 471.869C276.315 470.642 275.352 469.186 274.699 467.585C274.046 465.984 273.714 464.271 273.723 462.539L277.451 255.505C277.537 250.267 279.636 245.263 283.308 241.54C286.981 237.816 291.943 235.657 297.165 235.513L1013.74 214.71C1016.53 214.622 1019.32 215.116 1021.91 216.16C1024.51 217.204 1026.86 218.776 1028.82 220.777C1030.79 222.777 1032.31 225.164 1033.31 227.785C1034.31 230.406 1034.75 233.207 1034.62 236.009L1023.73 474.359C1023.35 482.62 1017.08 489.202 1009.73 489.062Z" fill="#7B52FB" fill-opacity="0.21"/>
<path d="M1034.17 222.424L958.373 224.521L959.185 205.865C959.272 203.331 960.289 200.92 962.039 199.092C963.792 197.265 966.153 196.151 968.674 195.965L1023.71 194.173C1030.24 193.957 1035.27 199.46 1034.96 206.475L1034.17 222.424Z" fill="#1B1559"/>
<path d="M942.779 225.054L866.917 227.189L867.666 208.837C867.762 206.327 868.779 203.94 870.523 202.137C872.27 200.335 874.618 199.245 877.12 199.077L934.96 197.171C936.15 197.143 937.331 197.367 938.425 197.828C939.522 198.289 940.508 198.977 941.323 199.846C942.136 200.716 942.757 201.748 943.144 202.874C943.534 204.001 943.681 205.197 943.576 206.385L942.779 225.054Z" fill="#1B1559"/>
<path d="M1033.04 259.504L276.673 271.453L277.156 244.661C277.281 237.469 283.949 232.233 291.384 231.953L1035.16 213.996L1033.04 259.504Z" fill="#1B1559"/>
<path d="M427.866 213.4L283.888 216.374C283.161 216.427 282.432 216.328 281.744 216.084C281.056 215.839 280.429 215.455 279.898 214.955C279.367 214.454 278.945 213.849 278.66 213.177C278.372 212.505 278.228 211.78 278.238 211.049C278.311 209.525 278.954 208.085 280.039 207.014C281.124 205.943 282.57 205.319 284.089 205.267L428.131 201.976C428.851 201.897 429.58 201.974 430.265 202.202C430.953 202.429 431.586 202.802 432.117 203.294C432.648 203.787 433.068 204.388 433.349 205.057C433.631 205.726 433.765 206.448 433.746 207.173V208.33C433.669 211.481 431.033 213.286 427.866 213.4Z" fill="#1B1559"/>
<path d="M972.309 446.553L724.469 445.054C718.285 445.054 713.61 439.41 714.013 432.536L716.864 379.807C717.27 372.93 722.629 367.327 728.826 367.289L977.744 367.404C983.941 367.404 988.564 373.148 988.059 380.342L984.357 433.615C983.852 440.796 978.442 446.591 972.309 446.553Z" fill="#EEF9FF"/>
<path d="M749.734 445.166L724.76 445.051C718.422 445.051 713.595 439.547 714.001 432.849L717.031 379.196C717.434 372.498 722.908 367.02 729.271 366.981L754.344 366.818" fill="#7B52FB" fill-opacity="0.21"/>
<path d="M802.746 427.109L774.541 427.019C773.805 426.981 773.088 426.789 772.433 426.459C771.773 426.129 771.194 425.665 770.724 425.098C770.254 424.531 769.905 423.872 769.7 423.164C769.496 422.457 769.441 421.714 769.534 420.984L771.335 391.5C771.374 389.956 771.985 388.48 773.047 387.363C774.112 386.246 775.552 385.564 777.088 385.448L805.356 385.349C808.319 385.349 810.562 388.042 810.424 391.397L808.562 421.061C808.527 422.617 807.913 424.105 806.835 425.226C805.756 426.347 804.294 427.019 802.746 427.109Z" stroke="#FF2F89" stroke-width="1.63" stroke-miterlimit="10"/>
<path d="M732.019 397.813C731.987 398.521 731.693 399.19 731.194 399.686C730.695 400.186 730.026 400.48 729.319 400.506C728.983 400.503 728.65 400.426 728.343 400.285C728.036 400.144 727.761 399.939 727.537 399.686C727.313 399.433 727.143 399.136 727.041 398.812C726.939 398.489 726.903 398.15 726.939 397.813C726.971 397.109 727.268 396.443 727.767 395.947C728.266 395.451 728.935 395.159 729.636 395.13C729.975 395.134 730.307 395.21 730.615 395.348C730.922 395.489 731.194 395.691 731.418 395.944C731.642 396.197 731.811 396.494 731.917 396.814C732.019 397.138 732.054 397.477 732.019 397.813Z" fill="#3197FF"/>
<path d="M739.342 397.801C739.31 398.508 739.016 399.177 738.517 399.677C738.018 400.173 737.349 400.468 736.642 400.496C736.306 400.49 735.973 400.413 735.666 400.272C735.359 400.131 735.084 399.926 734.86 399.674C734.636 399.421 734.467 399.123 734.364 398.799C734.262 398.479 734.227 398.137 734.262 397.801C734.297 397.096 734.595 396.43 735.094 395.931C735.593 395.434 736.258 395.14 736.959 395.108C737.298 395.111 737.631 395.188 737.938 395.329C738.245 395.47 738.52 395.675 738.744 395.928C738.968 396.18 739.134 396.478 739.24 396.802C739.342 397.122 739.377 397.464 739.342 397.801Z" fill="#3197FF"/>
<path d="M731.555 406.035C731.526 406.743 731.232 407.415 730.733 407.915C730.231 408.414 729.562 408.705 728.855 408.731C728.519 408.721 728.189 408.645 727.886 408.501C727.582 408.356 727.31 408.155 727.086 407.902C726.865 407.649 726.695 407.351 726.593 407.031C726.491 406.711 726.452 406.371 726.487 406.035C726.519 405.331 726.82 404.662 727.322 404.166C727.825 403.669 728.493 403.378 729.197 403.355C729.533 403.362 729.863 403.439 730.167 403.58C730.47 403.72 730.742 403.925 730.963 404.175C731.184 404.428 731.35 404.723 731.453 405.043C731.555 405.363 731.59 405.702 731.555 406.035Z" fill="#3197FF"/>
<path d="M738.853 406.035C738.821 406.743 738.523 407.412 738.021 407.912C737.519 408.411 736.847 408.702 736.143 408.731C735.804 408.725 735.474 408.648 735.167 408.504C734.86 408.363 734.588 408.158 734.364 407.905C734.14 407.652 733.971 407.358 733.868 407.034C733.763 406.714 733.727 406.372 733.759 406.035C733.795 405.328 734.092 404.659 734.594 404.159C735.097 403.663 735.765 403.368 736.472 403.343C736.808 403.349 737.141 403.426 737.445 403.567C737.752 403.711 738.027 403.913 738.248 404.166C738.472 404.419 738.642 404.716 738.747 405.04C738.849 405.36 738.888 405.699 738.853 406.035Z" fill="#3197FF"/>
<path d="M731.018 414.552C730.986 415.259 730.691 415.929 730.189 416.428C729.69 416.927 729.021 417.219 728.317 417.248C727.981 417.238 727.649 417.161 727.345 417.017C727.041 416.876 726.766 416.671 726.545 416.418C726.321 416.166 726.152 415.871 726.046 415.551C725.94 415.227 725.905 414.888 725.934 414.552C725.966 413.844 726.264 413.175 726.766 412.679C727.268 412.183 727.94 411.894 728.647 411.872C728.983 411.878 729.316 411.952 729.62 412.093C729.924 412.234 730.199 412.436 730.419 412.688C730.643 412.941 730.813 413.236 730.915 413.559C731.018 413.88 731.053 414.219 731.018 414.552Z" fill="#3197FF"/>
<path d="M738.341 414.552C738.315 415.26 738.021 415.929 737.519 416.428C737.016 416.924 736.348 417.213 735.644 417.235C735.305 417.229 734.972 417.155 734.665 417.014C734.358 416.87 734.086 416.668 733.862 416.415C733.638 416.159 733.468 415.865 733.363 415.541C733.26 415.218 733.225 414.879 733.26 414.542C733.296 413.835 733.593 413.169 734.092 412.673C734.591 412.176 735.257 411.888 735.96 411.859C736.296 411.866 736.629 411.939 736.936 412.08C737.243 412.224 737.519 412.426 737.743 412.679C737.966 412.935 738.136 413.23 738.238 413.553C738.341 413.876 738.376 414.216 738.341 414.552Z" fill="#3197FF"/>
<path d="M948.234 418.262L839.899 418.058C835.846 418.058 832.803 414.334 833.094 409.749L833.728 399.898C834.019 395.322 837.529 391.599 841.585 391.586L950.074 391.32C954.127 391.32 957.144 395.134 956.827 399.773L956.143 409.797C955.839 414.475 952.227 418.262 948.234 418.262Z" fill="#7B52FB" fill-opacity="0.21"/>
<path d="M794.086 397.766L787.623 416.041" stroke="#FF2F89" stroke-width="1.79" stroke-linecap="round" stroke-linejoin="round"/>
<path d="M784.334 399.101L777.315 406.432L783.458 414.273" stroke="#FF2F89" stroke-width="1.79" stroke-linecap="round" stroke-linejoin="round"/>
<path d="M798.382 399.008L804.567 406.279L797.496 414.222" stroke="#FF2F89" stroke-width="1.79" stroke-linecap="round" stroke-linejoin="round"/>
<path d="M977.984 358.519L729.117 360.44C722.92 360.44 718.221 354.949 718.627 348.072L721.628 297.021C722.034 290.147 727.406 283.197 733.641 283.043L983.458 279.332C989.69 279.204 994.329 284.926 993.837 292.04L990.122 345.418C989.63 352.609 984.194 358.468 977.984 358.519Z" fill="#EEF9FF"/>
<path d="M754.495 360.236L729.406 360.437C723.071 360.437 718.205 355.087 718.598 348.393L721.641 295.446C721.807 292.225 723.154 289.181 725.423 286.898C727.691 284.612 730.721 283.248 733.929 283.069L759.108 282.56" fill="#7B52FB" fill-opacity="0.21"/>
<path d="M807.734 341.451L779.404 341.755C776.425 341.755 774.17 339.114 774.336 335.784L776.147 306.312C776.195 304.76 776.809 303.28 777.872 302.153C778.934 301.023 780.37 300.325 781.912 300.188L810.306 299.691C813.285 299.691 815.54 302.32 815.377 305.663L813.525 335.326C813.477 336.882 812.859 338.364 811.79 339.491C810.725 340.622 809.282 341.32 807.734 341.451Z" stroke="#FF2F89" stroke-width="1.63" stroke-miterlimit="10"/>
<path d="M736.694 313.161C736.655 313.872 736.358 314.544 735.859 315.05C735.359 315.553 734.691 315.854 733.981 315.895C733.645 315.895 733.312 315.825 733.005 315.687C732.698 315.549 732.422 315.351 732.195 315.101C731.971 314.848 731.799 314.554 731.693 314.234C731.591 313.913 731.552 313.574 731.587 313.238C731.623 312.53 731.92 311.858 732.423 311.355C732.922 310.856 733.59 310.555 734.297 310.52C734.633 310.516 734.966 310.584 735.276 310.718C735.583 310.853 735.862 311.051 736.086 311.301C736.313 311.551 736.486 311.845 736.588 312.169C736.694 312.489 736.729 312.828 736.694 313.161Z" fill="#3197FF"/>
<path d="M744.055 313.046C744.016 313.757 743.722 314.429 743.22 314.935C742.721 315.437 742.052 315.738 741.342 315.78C741.006 315.78 740.673 315.713 740.363 315.575C740.056 315.441 739.777 315.239 739.554 314.989C739.326 314.739 739.157 314.442 739.051 314.122C738.949 313.798 738.914 313.459 738.949 313.123C738.971 312.399 739.269 311.707 739.781 311.192C740.289 310.677 740.974 310.372 741.697 310.34C742.036 310.344 742.369 310.42 742.676 310.564C742.983 310.705 743.255 310.91 743.479 311.166C743.7 311.423 743.866 311.72 743.965 312.047C744.065 312.37 744.096 312.71 744.055 313.046Z" fill="#3197FF"/>
<path d="M736.207 321.386C736.169 322.097 735.871 322.77 735.372 323.272C734.873 323.778 734.204 324.079 733.494 324.117C733.158 324.121 732.822 324.05 732.515 323.913C732.208 323.778 731.93 323.576 731.706 323.327C731.479 323.077 731.309 322.779 731.203 322.459C731.098 322.139 731.063 321.796 731.101 321.46C731.133 320.752 731.43 320.08 731.933 319.577C732.432 319.075 733.104 318.777 733.811 318.742C734.147 318.739 734.479 318.809 734.787 318.944C735.094 319.081 735.369 319.28 735.596 319.529C735.82 319.779 735.993 320.07 736.098 320.391C736.204 320.711 736.239 321.05 736.207 321.386Z" fill="#3197FF"/>
<path d="M743.566 321.281C743.53 321.992 743.233 322.664 742.731 323.17C742.231 323.672 741.563 323.973 740.853 324.015C740.517 324.015 740.184 323.945 739.877 323.807C739.57 323.669 739.295 323.471 739.071 323.221C738.843 322.968 738.674 322.673 738.568 322.353C738.463 322.033 738.424 321.694 738.459 321.358C738.495 320.647 738.792 319.974 739.294 319.472C739.794 318.966 740.462 318.665 741.169 318.627C741.508 318.623 741.841 318.694 742.148 318.831C742.459 318.966 742.734 319.168 742.961 319.417C743.185 319.667 743.358 319.965 743.46 320.285C743.566 320.605 743.601 320.945 743.566 321.281Z" fill="#3197FF"/>
<path d="M735.692 329.938C735.66 330.645 735.366 331.314 734.867 331.817C734.367 332.32 733.702 332.617 732.995 332.656C732.659 332.659 732.323 332.589 732.016 332.451C731.706 332.317 731.43 332.115 731.203 331.865C730.979 331.615 730.807 331.318 730.704 330.997C730.599 330.677 730.563 330.335 730.599 329.998C730.634 329.291 730.931 328.619 731.43 328.116C731.933 327.61 732.601 327.315 733.312 327.28C733.648 327.28 733.98 327.351 734.287 327.488C734.595 327.626 734.867 327.825 735.094 328.074C735.318 328.327 735.487 328.622 735.59 328.942C735.695 329.262 735.73 329.601 735.692 329.938Z" fill="#3197FF"/>
<path d="M743.054 329.835C743.015 330.546 742.721 331.218 742.219 331.724C741.72 332.227 741.051 332.528 740.341 332.57C740.005 332.566 739.672 332.493 739.365 332.355C739.058 332.217 738.783 332.016 738.556 331.766C738.332 331.513 738.159 331.218 738.057 330.898C737.951 330.575 737.913 330.236 737.948 329.899C737.983 329.192 738.281 328.519 738.783 328.017C739.282 327.514 739.951 327.216 740.658 327.181C740.994 327.181 741.326 327.252 741.637 327.389C741.944 327.524 742.219 327.725 742.443 327.975C742.67 328.225 742.84 328.519 742.945 328.84C743.051 329.163 743.086 329.499 743.054 329.835Z" fill="#3197FF"/>
<path d="M953.791 330.588L844.986 331.859C840.92 331.859 837.865 328.235 838.156 323.647L838.777 313.811C839.068 309.223 842.577 305.448 846.685 305.384L955.653 303.607C959.72 303.543 962.762 307.28 962.445 311.957L961.748 321.994C961.406 326.711 957.858 330.537 953.791 330.588Z" fill="#7B52FB" fill-opacity="0.21"/>
<path d="M785.025 310.926L806.678 310.468" stroke="#FF2F89" stroke-width="1.79" stroke-linecap="round" stroke-linejoin="round"/>
<path d="M784.612 317.928L806.265 317.496" stroke="#FF2F89" stroke-width="1.79" stroke-linecap="round" stroke-linejoin="round"/>
<path d="M784.225 324.931L805.865 324.524" stroke="#FF2F89" stroke-width="1.79" stroke-linecap="round" stroke-linejoin="round"/>
<path d="M783.812 331.933L805.44 331.552" stroke="#FF2F89" stroke-width="1.79" stroke-linecap="round" stroke-linejoin="round"/>
<path d="M675.421 445.599L306.5 444.071C305.022 444.049 303.564 443.726 302.217 443.121C300.867 442.519 299.654 441.645 298.653 440.556C297.651 439.467 296.88 438.187 296.384 436.791C295.892 435.392 295.684 433.909 295.78 432.43L301.698 299.551C301.817 296.461 303.093 293.532 305.269 291.342C307.444 289.152 310.362 287.861 313.443 287.73L685.367 283.334C691.59 283.219 696.315 288.659 695.922 295.51L687.319 433.269C686.925 440.108 681.605 445.637 675.421 445.599Z" fill="#EDF8FF"/>
<path d="M331.775 444.215L306.788 444.087C305.31 444.103 303.845 443.818 302.479 443.249C301.116 442.682 299.878 441.84 298.847 440.777C297.817 439.714 297.011 438.452 296.483 437.069C295.952 435.686 295.709 434.207 295.767 432.725L300.492 300.278C300.693 297.194 302.04 294.297 304.267 292.161C306.494 290.026 309.437 288.803 312.515 288.739L337.706 288.217" fill="#7B52FB" fill-opacity="0.21"/>
<path d="M314.575 358.113C314.537 358.795 314.242 359.435 313.75 359.906C313.257 360.38 312.608 360.645 311.926 360.655C311.6 360.664 311.277 360.607 310.973 360.482C310.672 360.36 310.397 360.178 310.166 359.947C309.939 359.714 309.76 359.438 309.642 359.134C309.523 358.83 309.469 358.503 309.482 358.177C309.517 357.495 309.811 356.851 310.301 356.377C310.794 355.907 311.446 355.641 312.128 355.635C312.454 355.622 312.78 355.676 313.084 355.798C313.388 355.92 313.667 356.102 313.897 356.333C314.124 356.566 314.303 356.845 314.422 357.152C314.537 357.46 314.591 357.786 314.575 358.113Z" fill="#3197FF"/>
<path d="M321.924 358.036C321.886 358.718 321.592 359.358 321.099 359.832C320.609 360.303 319.957 360.571 319.275 360.578C318.949 360.591 318.623 360.536 318.319 360.415C318.015 360.296 317.74 360.114 317.509 359.88C317.279 359.646 317.1 359.368 316.985 359.06C316.866 358.756 316.815 358.426 316.831 358.1C316.866 357.418 317.16 356.774 317.653 356.304C318.143 355.83 318.799 355.564 319.48 355.558C319.803 355.551 320.129 355.609 320.43 355.731C320.734 355.852 321.006 356.035 321.236 356.265C321.467 356.499 321.646 356.774 321.764 357.078C321.883 357.386 321.937 357.709 321.924 358.036Z" fill="#3197FF"/>
<path d="M314.265 365.765C314.23 366.447 313.936 367.09 313.443 367.561C312.95 368.035 312.298 368.301 311.616 368.307C311.287 368.317 310.957 368.256 310.65 368.131C310.343 368.003 310.064 367.817 309.834 367.577C309.604 367.337 309.428 367.052 309.313 366.741C309.197 366.428 309.149 366.095 309.172 365.765C309.21 365.083 309.505 364.443 309.997 363.969C310.487 363.498 311.139 363.232 311.821 363.223C312.15 363.213 312.48 363.274 312.787 363.399C313.094 363.524 313.373 363.713 313.603 363.953C313.833 364.19 314.009 364.475 314.124 364.788C314.24 365.099 314.288 365.432 314.265 365.765Z" fill="#3197FF"/>
<path d="M321.614 365.714C321.575 366.395 321.281 367.036 320.788 367.51C320.299 367.98 319.646 368.246 318.965 368.256C318.635 368.265 318.306 368.204 317.999 368.08C317.691 367.955 317.413 367.766 317.183 367.526C316.952 367.289 316.776 367.004 316.661 366.69C316.546 366.379 316.498 366.046 316.52 365.714C316.556 365.032 316.85 364.388 317.343 363.917C317.832 363.443 318.488 363.178 319.169 363.171C319.499 363.162 319.829 363.223 320.136 363.347C320.443 363.472 320.721 363.661 320.952 363.901C321.182 364.141 321.358 364.426 321.473 364.737C321.588 365.051 321.636 365.384 321.614 365.714Z" fill="#3197FF"/>
<path d="M313.942 373.731C313.9 374.413 313.603 375.053 313.107 375.527C312.614 375.997 311.962 376.263 311.28 376.273C310.951 376.279 310.621 376.218 310.317 376.093C310.01 375.965 309.735 375.776 309.504 375.54C309.277 375.299 309.101 375.014 308.986 374.704C308.874 374.393 308.826 374.06 308.845 373.731C308.881 373.049 309.175 372.405 309.668 371.934C310.16 371.461 310.813 371.195 311.494 371.188C311.827 371.179 312.157 371.24 312.464 371.365C312.771 371.489 313.046 371.678 313.276 371.918C313.507 372.159 313.686 372.444 313.798 372.754C313.913 373.068 313.961 373.398 313.942 373.731Z" fill="#3197FF"/>
<path d="M321.278 373.679C321.239 374.364 320.948 375.005 320.456 375.478C319.963 375.949 319.31 376.218 318.629 376.221C318.296 376.231 317.967 376.173 317.659 376.045C317.352 375.92 317.077 375.731 316.847 375.494C316.616 375.254 316.437 374.969 316.322 374.656C316.21 374.345 316.162 374.012 316.181 373.679C316.217 372.997 316.508 372.354 317 371.88C317.493 371.406 318.149 371.14 318.83 371.14C319.163 371.131 319.493 371.188 319.8 371.313C320.107 371.441 320.382 371.63 320.612 371.867C320.843 372.107 321.022 372.392 321.134 372.703C321.249 373.016 321.297 373.349 321.278 373.679Z" fill="#3197FF"/>
<g style="mix-blend-mode:multiply" opacity="0.6">
<path d="M2.57379 567.297C2.58979 582.915 8.69596 597.906 19.5876 609.07C30.4793 620.231 45.2921 626.676 60.8595 627.028L595.16 667.007C633.97 669.245 703.241 632.9 704.371 590.631L706.182 459.503C706.182 459.503 668.868 413.281 651.077 412.01C633.289 410.738 0.584473 524.926 0.584473 524.926L2.57379 567.297Z" fill="#E9F7FF"/>
</g>
<path d="M632.278 605.817L27.7286 577.223C12.6506 576.765 0.701876 563.027 1.12002 548.107L3.95812 430.96C4.26237 416.002 16.9332 403.89 32.1381 403.877L642.541 409.938C657.744 409.938 669.3 423.549 668.35 440.325L661.267 576.307C660.329 593.071 647.343 606.275 632.278 605.817Z" fill="#F8FCFF"/>
<path d="M89.4071 580.3L28.4987 577.54C13.0403 577.082 0.800443 564.909 1.16772 550.37L3.92999 430.25C4.31007 415.698 17.2595 403.89 32.8702 403.877L94.4121 403.813" fill="#1B1559"/>
<path d="M217.378 541.969L148.474 539.097C146.747 539.049 145.048 538.659 143.474 537.948C141.9 537.237 140.483 536.219 139.305 534.954C138.125 533.69 137.21 532.201 136.609 530.577C136.007 528.954 135.734 527.229 135.803 525.5L137.919 460.506C138.048 456.964 139.539 453.609 142.082 451.147C144.623 448.685 148.02 447.308 151.552 447.302L220.811 448.979C222.545 449.002 224.256 449.376 225.843 450.081C227.43 450.785 228.857 451.803 230.04 453.074C231.224 454.345 232.139 455.844 232.731 457.48C233.323 459.116 233.579 460.854 233.483 462.59L230.949 528.676C230.869 532.233 229.404 535.614 226.867 538.098C224.33 540.583 220.923 541.972 217.378 541.969Z" stroke="#FF2F89" stroke-width="4.01" stroke-miterlimit="10"/>
<path d="M42.1095 473.264C42.0084 474.865 41.2915 476.367 40.1094 477.446C38.9275 478.528 37.3733 479.107 35.7743 479.059C34.9777 479.095 34.1827 478.963 33.4369 478.682C32.6911 478.4 32.0097 477.968 31.4338 477.414C30.8576 476.863 30.3989 476.197 30.0844 475.464C29.7699 474.728 29.6064 473.937 29.6035 473.14C29.7046 471.539 30.4219 470.037 31.6037 468.958C32.7858 467.876 34.3401 467.296 35.9391 467.344C36.7357 467.309 37.5307 467.441 38.2765 467.722C39.0222 468.004 39.7034 468.436 40.2796 468.99C40.8554 469.541 41.3145 470.207 41.629 470.94C41.9435 471.676 42.107 472.467 42.1095 473.264Z" fill="#43A1FF"/>
<path d="M60.0048 473.456C59.9034 475.07 59.1781 476.581 57.9835 477.67C56.7886 478.755 55.218 479.331 53.6059 479.277C52.8169 479.29 52.0331 479.149 51.2999 478.858C50.5663 478.566 49.8982 478.131 49.3345 477.577C48.7708 477.023 48.3226 476.36 48.0161 475.634C47.7096 474.904 47.5509 474.119 47.5493 473.328C47.6507 471.715 48.3763 470.203 49.5716 469.121C50.7669 468.036 52.3371 467.46 53.9482 467.52C54.7368 467.501 55.5213 467.642 56.2552 467.93C56.9895 468.222 57.6581 468.657 58.2225 469.208C58.7868 469.762 59.2354 470.421 59.5412 471.151C59.8474 471.881 60.0048 472.666 60.0048 473.456Z" fill="#43A1FF"/>
<path d="M41.5953 491.213C41.497 492.811 40.7801 494.309 39.5967 495.388C38.4132 496.467 36.8571 497.037 35.2597 496.982C34.4714 496.995 33.6882 496.851 32.9556 496.56C32.2229 496.265 31.5556 495.83 30.9922 495.276C30.4288 494.725 29.9805 494.062 29.6734 493.336C29.3663 492.606 29.2063 491.824 29.2031 491.034C29.3013 489.433 30.0183 487.934 31.2017 486.859C32.3851 485.78 33.9413 485.207 35.5387 485.264C36.3283 485.245 37.114 485.386 37.8489 485.677C38.5838 485.965 39.2531 486.401 39.8177 486.958C40.3821 487.512 40.8303 488.171 41.1355 488.905C41.4407 489.635 41.5972 490.419 41.5953 491.213Z" fill="#43A1FF"/>
<path d="M59.5288 491.466C59.4306 493.067 58.7139 494.565 57.5312 495.644C56.3481 496.726 54.7919 497.299 53.1935 497.248C52.4039 497.261 51.6195 497.12 50.8862 496.826C50.1526 496.534 49.4849 496.096 48.9218 495.542C48.3588 494.988 47.9122 494.325 47.6079 493.592C47.3033 492.862 47.1475 492.077 47.1494 491.287C47.2476 489.686 47.9636 488.184 49.1464 487.102C50.3289 486.02 51.885 485.444 53.485 485.492C54.2749 485.479 55.0594 485.623 55.793 485.917C56.5266 486.212 57.1942 486.651 57.757 487.204C58.3198 487.762 58.7664 488.424 59.0706 489.157C59.3749 489.887 59.5307 490.672 59.5288 491.466Z" fill="#43A1FF"/>
<path d="M41.0954 509.866C41.0007 511.467 40.2841 512.965 39.0997 514.041C37.915 515.12 36.3573 515.687 34.7602 515.623C33.97 515.635 33.1855 515.488 32.4519 515.193C31.7186 514.899 31.0506 514.463 30.4872 513.906C29.9238 513.349 29.4759 512.69 29.1697 511.957C28.8636 511.227 28.7052 510.442 28.7036 509.651C28.8015 508.054 29.5197 506.555 30.7038 505.483C31.8879 504.41 33.444 503.844 35.0389 503.904C35.8284 503.892 36.6126 504.036 37.3462 504.33C38.0795 504.625 38.7475 505.06 39.3112 505.614C39.8746 506.168 40.3228 506.831 40.629 507.561C40.9355 508.291 41.0942 509.075 41.0954 509.866Z" fill="#43A1FF"/>
<path d="M58.9912 510.148C58.8965 511.748 58.1801 513.247 56.9961 514.326C55.812 515.405 54.2543 515.975 52.6559 515.917C51.8663 515.923 51.0828 515.776 50.3508 515.478C49.6185 515.184 48.9524 514.742 48.3903 514.188C47.8285 513.631 47.3822 512.968 47.0767 512.238C46.7715 511.505 46.6134 510.724 46.6118 509.93C46.7132 508.332 47.4312 506.834 48.6139 505.758C49.7964 504.682 51.3506 504.109 52.9474 504.16C53.7373 504.151 54.5218 504.298 55.2544 504.596C55.9874 504.89 56.6544 505.329 57.2165 505.886C57.7786 506.443 58.2252 507.106 58.5298 507.839C58.8344 508.569 58.9915 509.353 58.9912 510.148Z" fill="#43A1FF"/>
<path d="M572.298 532.422L307.479 522.141C305.096 522.068 302.754 521.514 300.588 520.512C298.425 519.51 296.483 518.082 294.884 516.311C293.281 514.541 292.052 512.463 291.269 510.206C290.485 507.948 290.165 505.553 290.325 503.168L291.211 478.538C291.614 468.244 300.003 459.971 309.924 460.061L575.644 465.004C585.578 465.094 593.141 473.902 592.559 484.791L591.292 513.145C590.671 523.986 582.184 532.614 572.298 532.422Z" fill="#7B52FB" fill-opacity="0.21"/>
<path d="M137.067 507.516L170.556 485.085L212.345 540.621" stroke="#FF2F89" stroke-width="4.04" stroke-miterlimit="10"/>
<path d="M231.851 520.668L211.705 500.094L192.279 513.692" stroke="#FF2F89" stroke-width="4.04" stroke-miterlimit="10"/>
<path d="M207.924 477.244C207.792 479.594 206.756 481.8 205.031 483.398C203.307 484.992 201.032 485.853 198.687 485.796C197.542 485.808 196.406 485.588 195.347 485.149C194.291 484.713 193.328 484.067 192.525 483.25C191.719 482.434 191.089 481.464 190.663 480.398C190.241 479.328 190.033 478.188 190.059 477.042C190.193 474.689 191.236 472.483 192.961 470.889C194.685 469.291 196.96 468.427 199.308 468.475C200.453 468.462 201.589 468.683 202.648 469.121C203.707 469.557 204.667 470.207 205.473 471.023C206.276 471.843 206.906 472.816 207.329 473.885C207.751 474.952 207.952 476.095 207.924 477.244Z" stroke="#FF2F89" stroke-width="4.04" stroke-miterlimit="10"/>
<g style="mix-blend-mode:multiply" opacity="0.6">
<path d="M219.063 805.557L800.27 851.614C819.734 853.365 836.825 839.972 837.573 822.382L844.442 686.147C844.442 686.147 820.48 653.205 802.628 651.832C784.776 650.462 219.012 753.77 219.012 753.77L219.063 805.557Z" fill="#E9F7FF"/>
</g>
<path d="M787.393 821.646L157.577 767.368C151.731 766.871 146.302 764.137 142.415 759.729C138.531 755.323 136.486 749.582 136.709 743.704L139.699 634.892C139.769 632.004 140.409 629.161 141.58 626.523C142.754 623.884 144.434 621.506 146.526 619.52C148.619 617.539 151.085 615.989 153.776 614.965C156.47 613.94 159.336 613.463 162.216 613.556L795.756 646.927C807.792 647.41 816.916 658.709 816.142 672.153L810.428 798.68C809.628 812.178 799.326 822.497 787.393 821.646Z" fill="#F3FBFF"/>
<path d="M206.42 770.543L158.142 767.406C145.902 766.605 136.286 756.274 136.679 744.312L139.721 634.382C140.111 622.437 150.438 613.136 162.781 613.632L211.423 615.563" fill="#1B1559"/>
<path d="M307.975 740.019L253.427 735.508C250.612 735.268 247.998 733.942 246.136 731.81C244.274 729.678 243.308 726.902 243.446 724.071L245.282 670.594C245.307 669.195 245.608 667.815 246.171 666.534C246.731 665.253 247.537 664.097 248.545 663.131C249.553 662.164 250.743 661.408 252.045 660.902C253.347 660.4 254.733 660.159 256.128 660.198L311.107 663.083C313.945 663.291 316.588 664.616 318.456 666.771C320.325 668.926 321.265 671.734 321.08 674.583L318.824 729.674C318.802 731.073 318.504 732.453 317.944 733.734C317.384 735.015 316.575 736.171 315.567 737.131C314.556 738.095 313.366 738.847 312.061 739.343C310.759 739.84 309.37 740.07 307.975 740.019Z" stroke="#FF2F89" stroke-width="3.21" stroke-miterlimit="10"/>
<path d="M271.606 686.516L274.76 686.682L284.732 712.888L280.679 712.657L278.359 706.19L266.132 705.527L263.345 711.703L259.292 711.489L271.606 686.516ZM277.208 703.036L272.872 691.065H272.796L267.475 702.505L277.208 703.036Z" fill="#FF2F89"/>
<path d="M287.96 685.587L291.23 685.753L290.724 698.461H290.788C291.451 697.564 292.35 696.873 293.386 696.466C294.496 696.005 295.696 695.8 296.896 695.868C298.134 695.922 299.353 696.22 300.479 696.745C301.503 697.241 302.411 697.942 303.154 698.803C303.893 699.671 304.456 700.676 304.801 701.765C305.172 702.93 305.332 704.153 305.268 705.373C305.236 706.59 304.977 707.787 304.51 708.908C304.069 709.948 303.432 710.893 302.635 711.69C301.826 712.475 300.856 713.08 299.798 713.458C298.633 713.874 297.392 714.043 296.16 713.954C294.983 713.887 293.837 713.56 292.801 713C291.767 712.484 290.894 711.697 290.267 710.723H290.19L290.104 713.192L286.834 713.012L287.96 685.587ZM295.882 710.864C296.688 710.919 297.497 710.813 298.262 710.547C298.943 710.298 299.567 709.907 300.089 709.404C300.607 708.882 301.016 708.258 301.292 707.573C301.589 706.811 301.759 706.004 301.784 705.184C301.829 704.358 301.727 703.532 301.48 702.745C301.266 702.031 300.914 701.365 300.444 700.785C299.951 700.254 299.362 699.822 298.707 699.514C297.977 699.162 297.184 698.967 296.374 698.944C295.568 698.887 294.755 698.999 293.994 699.274C293.309 699.514 292.689 699.898 292.167 700.404C291.627 700.923 291.195 701.544 290.9 702.236C290.603 702.998 290.436 703.804 290.408 704.624C290.363 705.45 290.465 706.276 290.712 707.064C290.923 707.778 291.278 708.437 291.751 709.01C292.234 709.551 292.826 709.984 293.485 710.281C294.234 710.646 295.05 710.845 295.882 710.864Z" fill="#FF2F89"/>
<path d="M739.774 757.327L379.226 728.784C371.398 728.339 365.351 721.161 365.719 712.849L366.506 694.904C366.874 686.541 373.538 680.073 381.38 680.454L742.497 703.33C750.341 703.711 756.321 711.082 755.841 719.851L754.814 742.433C754.369 751.074 747.606 757.772 739.774 757.327Z" fill="#7B52FB" fill-opacity="0.21"/>
<path d="M169.596 678.015C169.568 678.649 169.411 679.273 169.142 679.846C168.87 680.419 168.486 680.935 168.016 681.361C167.542 681.783 166.992 682.11 166.394 682.318C165.796 682.529 165.159 682.616 164.529 682.577C163.227 682.523 162.001 681.963 161.112 681.012C160.219 680.061 159.736 678.796 159.765 677.493C159.794 676.859 159.95 676.238 160.222 675.665C160.494 675.092 160.878 674.58 161.349 674.154C161.822 673.731 162.372 673.408 162.971 673.2C163.566 672.991 164.199 672.905 164.833 672.943C166.131 672.988 167.36 673.549 168.253 674.496C169.145 675.447 169.628 676.709 169.596 678.015Z" fill="#3197FF"/>
<path d="M183.794 678.726C183.762 679.36 183.606 679.984 183.334 680.557C183.062 681.13 182.681 681.643 182.207 682.068C181.737 682.494 181.187 682.818 180.589 683.029C179.99 683.237 179.357 683.327 178.723 683.288C177.425 683.24 176.196 682.677 175.307 681.726C174.417 680.775 173.937 679.51 173.973 678.204C174.001 677.57 174.158 676.946 174.427 676.373C174.699 675.796 175.083 675.281 175.553 674.855C176.026 674.429 176.577 674.103 177.175 673.891C177.773 673.68 178.407 673.594 179.04 673.629C180.342 673.686 181.568 674.253 182.454 675.204C183.343 676.158 183.823 677.423 183.794 678.726Z" fill="#3197FF"/>
<path d="M169.097 692.733C169.065 693.367 168.911 693.988 168.64 694.561C168.368 695.138 167.987 695.65 167.513 696.072C167.043 696.498 166.49 696.822 165.891 697.03C165.293 697.238 164.66 697.321 164.026 697.283C162.73 697.222 161.508 696.658 160.622 695.707C159.733 694.76 159.253 693.498 159.275 692.198C159.304 691.565 159.461 690.94 159.733 690.367C160.001 689.794 160.385 689.279 160.859 688.856C161.329 688.433 161.879 688.107 162.481 687.899C163.079 687.694 163.713 687.607 164.343 687.649C165.642 687.706 166.861 688.273 167.75 689.221C168.636 690.172 169.119 691.43 169.097 692.733Z" fill="#3197FF"/>
<path d="M183.267 693.47C183.241 694.104 183.088 694.728 182.816 695.304C182.544 695.881 182.163 696.393 181.69 696.819C181.219 697.244 180.666 697.571 180.068 697.779C179.466 697.987 178.833 698.074 178.199 698.032C176.903 697.971 175.681 697.408 174.795 696.457C173.906 695.509 173.423 694.251 173.448 692.948C173.477 692.314 173.631 691.69 173.903 691.116C174.174 690.54 174.558 690.028 175.029 689.602C175.502 689.176 176.052 688.85 176.651 688.641C177.249 688.433 177.882 688.347 178.516 688.385C179.812 688.446 181.034 689.01 181.923 689.957C182.809 690.908 183.292 692.167 183.267 693.47Z" fill="#3197FF"/>
<path d="M168.556 708.008C168.531 708.642 168.377 709.263 168.105 709.839C167.833 710.413 167.452 710.925 166.979 711.347C166.505 711.773 165.955 712.097 165.354 712.302C164.755 712.506 164.122 712.59 163.489 712.545C162.193 712.481 160.974 711.917 160.088 710.966C159.201 710.019 158.715 708.761 158.738 707.461C158.766 706.827 158.923 706.206 159.195 705.632C159.467 705.059 159.848 704.547 160.321 704.128C160.795 703.705 161.345 703.382 161.943 703.177C162.542 702.975 163.175 702.892 163.805 702.937C165.101 702.994 166.32 703.558 167.206 704.505C168.096 705.453 168.579 706.708 168.556 708.008Z" fill="#3197FF"/>
<path d="M182.729 708.793C182.703 709.427 182.55 710.051 182.278 710.624C182.006 711.2 181.622 711.713 181.152 712.135C180.678 712.558 180.125 712.881 179.527 713.086C178.928 713.291 178.292 713.374 177.661 713.33C176.366 713.269 175.147 712.702 174.261 711.754C173.371 710.807 172.888 709.548 172.91 708.248C172.939 707.611 173.093 706.99 173.365 706.417C173.637 705.844 174.021 705.329 174.491 704.906C174.964 704.48 175.515 704.157 176.113 703.949C176.711 703.741 177.345 703.657 177.978 703.699C179.277 703.757 180.499 704.323 181.389 705.274C182.275 706.228 182.758 707.49 182.729 708.793Z" fill="#3197FF"/>
<path d="M1256.05 752.915C1256.87 746.867 1255.26 740.742 1251.57 735.885C1247.87 731.028 1242.41 727.836 1236.36 727.014C1235.39 726.885 1234.41 726.821 1233.43 726.818C1233.43 726.818 1143.34 722.899 1141.08 804.401L1202.34 815.636C1202.34 815.636 1182.8 768.895 1232.28 772.586C1233.17 772.708 1235 772.67 1235.85 772.65C1246.83 772.545 1254.52 764.166 1256.05 752.915Z" fill="url(#paint0_linear_30_2488)"/>
<path d="M1270.59 838.435C1264.05 838.105 1150.66 835.032 1124.97 911.238C1117.01 934.867 1120.18 957.246 1145.76 977.737L1179.41 982.319L1193.18 950.616L1192.36 936.531C1192.36 936.531 1190.98 960.137 1174.37 954.448C1169.45 952.7 1161.49 947.667 1160.47 935.084C1158.36 907.316 1208.46 882.513 1271.15 883.96C1276.03 883.182 1280.52 880.851 1283.97 877.32C1287.42 873.788 1289.64 869.239 1290.31 864.343C1291.98 851.745 1283.27 839.098 1270.59 838.435Z" fill="url(#paint1_linear_30_2488)"/>
<path d="M1205.82 729.684C1205.82 729.684 1170.26 766.096 1207.6 824.466C1223.14 848.764 1256.38 889.025 1248.17 932.436C1245.44 946.898 1237.73 975.15 1215.59 987.368C1197.88 997.152 1167.99 995.446 1145.26 977.19C1145.26 977.19 1192.52 972.602 1192.38 936.426C1192.28 908.75 1177.36 873.705 1149.05 834.568C1125.64 802.243 1139.34 740.06 1205.82 729.684Z" fill="url(#paint2_linear_30_2488)"/>
<defs>
<linearGradient id="paint0_linear_30_2488" x1="1146.32" y1="761.348" x2="1252.93" y2="775.84" gradientUnits="userSpaceOnUse">
<stop stop-color="#1B1559"/>
<stop offset="1" stop-color="#7B52FB"/>
</linearGradient>
<linearGradient id="paint1_linear_30_2488" x1="1125.49" y1="896.802" x2="1282.95" y2="918.206" gradientUnits="userSpaceOnUse">
<stop stop-color="#1B1559"/>
<stop offset="1" stop-color="#7B52FB"/>
</linearGradient>
<linearGradient id="paint2_linear_30_2488" x1="1130.66" y1="852.609" x2="1256.79" y2="869.751" gradientUnits="userSpaceOnUse">
<stop stop-color="#1B1559"/>
<stop offset="1" stop-color="#003CBE"/>
</linearGradient>
</defs>
</svg>
