<svg id="Calque_1" data-name="Calque 1" xmlns="http://www.w3.org/2000/svg" viewBox="0 0 858 339.78"><defs><style>.cls-1,.cls-2{fill:#fff;}.cls-2{font-size:49.83px;font-family:Chillax-Medium, Chillax;font-weight:500;}.cls-3{letter-spacing:0.01em;}.cls-4{letter-spacing:0em;}.cls-5{letter-spacing:-0.01em;}.cls-6{letter-spacing:-0.01em;}.cls-7{letter-spacing:0.01em;}.cls-8{letter-spacing:-0.03em;}</style></defs><rect class="cls-1" x="-13.47" y="202.13" width="261.05" height="43.15" rx="21.58" transform="translate(-184.16 132.36) rotate(-65)"/><path class="cls-1" d="M357.78,105.23h0a21.56,21.56,0,0,1,10.43,28.67L276.13,331.38a21.58,21.58,0,0,1-28.68,10.44h0A21.57,21.57,0,0,1,237,313.15l92.09-197.49A21.56,21.56,0,0,1,357.78,105.23Z" transform="translate(-49 -102.89)"/><path class="cls-1" d="M467.82,105.23h0a21.56,21.56,0,0,1,10.43,28.67L386.16,331.38a21.57,21.57,0,0,1-28.67,10.44h0a21.58,21.58,0,0,1-10.44-28.67l92.09-197.49A21.58,21.58,0,0,1,467.82,105.23Z" transform="translate(-49 -102.89)"/><path class="cls-1" d="M154.67,104.92h0a21.58,21.58,0,0,1,28.68,10.44l92.09,197.48A21.59,21.59,0,0,1,265,341.52h0a21.58,21.58,0,0,1-28.67-10.44L144.24,133.59A21.57,21.57,0,0,1,154.67,104.92Z" transform="translate(-49 -102.89)"/><path class="cls-1" d="M264.71,104.92h0a21.58,21.58,0,0,1,28.68,10.44l92.09,197.48A21.59,21.59,0,0,1,375,341.52h0a21.58,21.58,0,0,1-28.67-10.44L254.28,133.59A21.57,21.57,0,0,1,264.71,104.92Z" transform="translate(-49 -102.89)"/><path class="cls-1" d="M513.16,212.7h27.91l4.72-16.84h35l4.58,16.84h27.9l-25.69-83.87c-3.69-12.26-14-18-24.36-18s-20.67,5.76-24.37,18Zm49-75.9c.3-1,.59-1.48,1.18-1.48s.89.45,1.19,1.48L574,171.5H552.59Zm63.64-31.89V212.7H652.4V104.91Zm82.74,109.85c16.53,0,29.08-8.27,35.43-22l-20.37-10.19a16.47,16.47,0,0,1-15.36,9.6c-8.12,0-13.73-4.43-15.5-11.81h51.38v-6.65c0-19.78-13.44-37.8-37.65-37.8-23.33,0-39.28,17.72-39.28,39C667.21,199.11,684.93,214.76,708.56,214.76Zm-14.62-48.13c1.62-4.29,5.9-8,12.25-8,6.2,0,10.34,3.84,11.52,8ZM792.1,212.7V161h21.27V138.87H792.1v-1c0-7.08,4.29-11.07,11.22-11.07a25.76,25.76,0,0,1,11.67,3V105.65c-3.69-1.63-9.15-2.51-14.18-2.51-24.06,0-35.28,15.65-35.28,35.28v.45H753V161h12.56V212.7Zm63.56,2.21c8.56,0,15.2-2.81,19.93-7.68v5.47h25.1V175.63c0-22.59-17-39.12-40.6-39.12-23,0-40.61,17.71-40.61,39.12C819.48,197.19,834.1,214.91,855.66,214.91ZM860.09,190c-8.42,0-14-6.5-14-14.18s5.61-14.32,14-14.32,14,6.5,14,14.32S868.5,190,860.09,190Z" transform="translate(-49 -102.89)"/><path class="cls-1" d="M530.14,325.65c2.51,12,10.49,18.61,21.26,18.61,9.75,0,18.46-6.5,21-17.43l12.26-53.89,12.25,53.89c2.51,10.93,11.22,17.43,21,17.43,10.78,0,18.75-6.65,21.26-18.61l17.72-83.42H629.51l-12.84,68.21-11.22-49.61C602.2,246.21,595.26,240,584.63,240s-17.57,6.2-20.82,20.82l-11.22,49.61-12.85-68.21H512.42ZM699.62,344c16.53,0,29.08-8.27,35.43-22l-20.37-10.19a16.47,16.47,0,0,1-15.36,9.6c-8.12,0-13.73-4.43-15.5-11.81H735.2v-6.65c0-19.78-13.44-37.8-37.65-37.8-23.33,0-39.28,17.72-39.28,39C658.27,328.31,676,344,699.62,344ZM685,295.82c1.62-4.28,5.9-8,12.25-8s10.34,3.84,11.52,8Zm104.07,48.29c23,0,40.6-17.57,40.6-39,0-23.63-15.65-39.28-39.13-39.28A32.73,32.73,0,0,0,775,270V234.11H748.46v71C748.46,327.72,765.44,344.11,789.07,344.11Zm0-25c-8.42,0-14-6.35-14-14.17s5.61-14.18,14-14.18,14,6.5,14,14.18S797.48,319.15,789.07,319.15Z" transform="translate(-49 -102.89)"/><path class="cls-1" d="M853.94,315.33a3.06,3.06,0,0,1,0-5.32l48.45-28A3.08,3.08,0,0,1,907,284.7v55.94a3.08,3.08,0,0,1-4.61,2.67Z" transform="translate(-49 -102.89)"/><text class="cls-2" transform="translate(0 326.58)">C<tspan class="cls-3" x="33.64" y="0">r</tspan><tspan class="cls-4" x="51.43" y="0">éation si</tspan><tspan class="cls-5" x="262.03" y="0">t</tspan><tspan class="cls-4" x="283.96" y="0">e in</tspan><tspan class="cls-6" x="372.26" y="0">t</tspan><tspan x="394.19" y="0">e</tspan><tspan class="cls-7" x="422.85" y="0">r</tspan><tspan x="440.39" y="0">net &amp; </tspan><tspan class="cls-8" x="589.74" y="0">W</tspan><tspan x="636.24" y="0">ebdesign</tspan></text></svg>