<?xml version="1.0" encoding="iso-8859-1"?>
<!-- Generator: Adobe Illustrator 19.0.0, SVG Export Plug-In . SVG Version: 6.00 Build 0)  -->
<svg version="1.1" id="Layer_1" xmlns="http://www.w3.org/2000/svg" xmlns:xlink="http://www.w3.org/1999/xlink" x="0px" y="0px"
	 viewBox="0 0 496 496" style="enable-background:new 0 0 496 496;" xml:space="preserve">
<g>
	<g>
		<g>
			<rect x="240" y="352" width="16" height="16"/>
			<rect x="32" y="64" width="24" height="16"/>
			<rect x="72" y="64" width="24" height="16"/>
			<rect x="112" y="64" width="24" height="16"/>
			<rect x="32" y="96" width="24" height="16"/>
			<rect x="72" y="96" width="24" height="16"/>
			<rect x="112" y="96" width="24" height="16"/>
			<path d="M496,48V0H336v48h16v16h-16v32H168V0H0v144h112v186.176l-6.064-6.064l-8.96,8.968c-0.32-0.136-0.648-0.272-0.976-0.4V320
				H48v12.672c-0.328,0.136-0.656,0.264-0.976,0.4l-8.96-8.968L4.12,358.048l8.96,8.96c-0.136,0.336-0.272,0.664-0.408,0.992H0v48
				h12.672c0.136,0.328,0.272,0.656,0.408,0.984l-8.96,8.96l33.944,33.944l8.96-8.968c0.32,0.136,0.648,0.272,0.976,0.4V464h48
				v-12.672c0.328-0.136,0.656-0.264,0.976-0.4l8.96,8.968l6.064-6.072V464h16v32h64v-32h112v32h64v-32h8v-16H128v-10.176
				l11.88-11.88l-8.96-8.96c0.136-0.328,0.272-0.656,0.408-0.984H144v-48h-12.672c-0.136-0.328-0.272-0.656-0.408-0.984l8.96-8.96
				L128,346.176V304h240h8h8V176h112v-48h-16v-16h16V64h-16V48H496z M320,464h32v16h-32V464z M144,464h32v16h-32V464z M168,112h168
				h16v16h-16v32h-16v-32h-16v32h-16v-32h-16v32h-16v-32h-16v32H128v-16h40V112z M16,16h136v16H16V16z M128,400h-8.312l-1.704,5.712
				c-0.976,3.256-2.232,6.32-3.752,9.112l-2.848,5.248l5.872,5.864l-11.32,11.312l-5.856-5.864l-5.248,2.84
				c-2.824,1.528-5.88,2.792-9.112,3.752L80,439.68V448H64v-8.32l-5.72-1.696c-3.224-0.96-6.288-2.216-9.112-3.752l-5.248-2.848
				l-5.856,5.864l-11.32-11.312l5.872-5.864l-2.848-5.248c-1.512-2.792-2.776-5.856-3.752-9.112L24.312,400H16v-16h8.312
				l1.704-5.712c0.976-3.256,2.232-6.32,3.752-9.112l2.848-5.248l-5.872-5.864l11.32-11.312l5.856,5.864l5.248-2.84
				c2.824-1.528,5.88-2.792,9.112-3.752L64,344.32V336h16v8.32l5.72,1.696c3.224,0.96,6.288,2.216,9.112,3.752l5.248,2.84
				l5.856-5.864l11.32,11.312l-5.872,5.864l2.848,5.248c1.512,2.792,2.776,5.856,3.752,9.112l1.704,5.72H128V400z M16,128V48h136v80
				H16z M368,288h-48v-32h-16v32h-16v-32h-16v32h-16v-32h-16v32H128v-48h240V288z M368,224h-48v-32h-16v32h-16v-32h-16v32h-16v-32
				h-16v32H128v-48h208h32V224z M480,160H376h-24v-16h128V160z M368,128v-16h96v16H368z M480,96H360h-8V80h128V96z M368,64V48h96v16
				H368z M352,32V16h128v16H352z"/>
			<path d="M208,360c0,22.056,17.944,40,40,40c22.056,0,40-17.944,40-40c0-22.056-17.944-40-40-40C225.944,320,208,337.944,208,360z
				 M272,360c0,13.232-10.768,24-24,24s-24-10.768-24-24s10.768-24,24-24S272,346.768,272,360z"/>
			<path d="M72,360c-17.648,0-32,14.352-32,32s14.352,32,32,32s32-14.352,32-32S89.648,360,72,360z M72,408c-8.824,0-16-7.176-16-16
				c0-8.824,7.176-16,16-16s16,7.176,16,16C88,400.824,80.824,408,72,408z"/>
			<path d="M368,320v16h-16v16h16v16h-16v16h16v16h-16v16h16v16h16v16h16v-16h16v16h16v-16h16v16h16v-16h16v-16h16v-16h-16v-16h16
				v-16h-16v-16h16v-16h-16v-16h-16v-16h-16v16h-16v-16h-16v16h-16v-16h-16v16H368z M464,336v80h-80v-80H464z"/>
			<path d="M424,408c17.648,0,32-14.352,32-32s-14.352-32-32-32s-32,14.352-32,32S406.352,408,424,408z M424,360
				c8.824,0,16,7.176,16,16c0,8.824-7.176,16-16,16c-8.824,0-16-7.176-16-16C408,367.176,415.176,360,424,360z"/>
		</g>
	</g>
</g>
<g>
</g>
<g>
</g>
<g>
</g>
<g>
</g>
<g>
</g>
<g>
</g>
<g>
</g>
<g>
</g>
<g>
</g>
<g>
</g>
<g>
</g>
<g>
</g>
<g>
</g>
<g>
</g>
<g>
</g>
</svg>
