<?xml version="1.0" encoding="iso-8859-1"?>
<!-- Generator: Adobe Illustrator 19.0.0, SVG Export Plug-In . SVG Version: 6.00 Build 0)  -->
<svg version="1.1" id="Layer_1" xmlns="http://www.w3.org/2000/svg" xmlns:xlink="http://www.w3.org/1999/xlink" x="0px" y="0px"
	 viewBox="0 0 512.001 512.001" style="enable-background:new 0 0 512.001 512.001;" xml:space="preserve">
<g>
	<g>
		<path d="M475.414,162.386h-35.577V48.588c0-5.77-4.679-10.449-10.449-10.449H10.449C4.679,38.139,0,42.818,0,48.588v306.862
			c0,5.77,4.679,10.449,10.449,10.449h160.049l-5.617,37.223h-24.475c-5.77,0-10.449,4.679-10.449,10.449
			c0,5.77,4.679,10.449,10.449,10.449h33.464h92.097h0.021h33.444c5.77,0,10.449-4.679,10.449-10.449
			c0-5.77-4.679-10.449-10.449-10.449h-24.474L269.34,365.9h43.813v58.456v12.899c0,20.185,16.412,36.607,36.586,36.607h125.676
			c20.174,0,36.586-16.422,36.586-36.607v-12.899V210.328v-11.335C512,178.808,495.588,162.386,475.414,162.386z M186.014,403.123
			l5.618-37.223h56.573l5.618,37.223H186.014z M313.152,198.993v11.335v87.71c-1.838-1.609-4.239-2.592-6.873-2.592h-32.631
			c-5.77,0-10.449,4.679-10.449,10.449c0,5.77,4.679,10.449,10.449,10.449h32.631c2.634,0,5.035-0.983,6.873-2.592v31.251h-55.956
			h-74.555H20.898v-28.658h225.246c5.77,0,10.449-4.679,10.449-10.449c0-5.77-4.679-10.449-10.449-10.449H20.898V59.037h398.041
			v103.349h-69.201C329.564,162.386,313.152,178.808,313.152,198.993z M349.738,452.963v0.001c-8.65,0-15.688-7.047-15.688-15.709
			v-2.45h71.574c-2.729,2.095-4.5,5.38-4.5,9.079c0,3.699,1.77,6.984,4.5,9.079H349.738z M415.153,452.964h-5.153
			c-3.958-1.125-6.869-4.766-6.869-9.079c0-4.313,2.911-7.954,6.869-9.079h5.153c3.959,1.125,6.87,4.766,6.87,9.079
			C422.023,448.198,419.112,451.838,415.153,452.964z M491.102,437.255c0,8.662-7.037,15.709-15.688,15.709h-55.887
			c2.729-2.095,4.5-5.38,4.5-9.079c0-3.699-1.771-6.984-4.5-9.079h71.576V437.255z M491.102,413.907H334.05v-58.456V220.777h157.052
			V413.907z M491.103,199.879h-0.001H334.05v-0.886c0-8.662,7.037-15.709,15.688-15.709h79.652h46.026
			c8.65,0,15.688,7.047,15.688,15.709V199.879z"/>
	</g>
</g>
<g>
	<g>
		<path d="M471.489,230.522H353.225c-5.77,0-10.449,4.679-10.449,10.449v76.151c0,5.771,4.678,10.449,10.449,10.449h118.265
			c5.77,0,10.449-4.679,10.449-10.449v-76.151C481.938,235.201,477.259,230.522,471.489,230.522z M461.041,306.673h-97.368V251.42
			h97.368V306.673z"/>
	</g>
</g>
<g>
	<g>
		<path d="M471.458,344.791H353.193c-5.77,0-10.449,4.679-10.449,10.449c0,5.77,4.678,10.449,10.449,10.449h118.265
			c5.77,0,10.449-4.679,10.449-10.449C481.907,349.47,477.228,344.791,471.458,344.791z"/>
	</g>
</g>
<g>
	<g>
		<path d="M471.458,377.816H353.193c-5.77,0-10.449,4.679-10.449,10.449s4.678,10.449,10.449,10.449h118.265
			c5.77,0,10.449-4.679,10.449-10.449S477.228,377.816,471.458,377.816z"/>
	</g>
</g>
<g>
	<g>
		<path d="M181.866,83.228H63.6c-5.77,0-10.449,4.679-10.449,10.449v76.151c0,5.771,4.679,10.449,10.449,10.449h118.266
			c5.77,0,10.449-4.679,10.449-10.449V93.677C192.314,87.907,187.635,83.228,181.866,83.228z M171.417,159.379H74.049v-55.253
			h97.368V159.379z"/>
	</g>
</g>
<g>
	<g>
		<path d="M289.972,197.488H63.577c-5.77,0-10.449,4.679-10.449,10.449c0,5.77,4.678,10.449,10.449,10.449h226.395
			c5.77,0,10.449-4.679,10.449-10.449C300.421,202.167,295.742,197.488,289.972,197.488z"/>
	</g>
</g>
<g>
	<g>
		<path d="M289.963,230.522H63.568c-5.77,0-10.449,4.679-10.449,10.449c0,5.77,4.678,10.449,10.449,10.449h226.395
			c5.77,0,10.449-4.679,10.449-10.449C300.412,235.201,295.733,230.522,289.963,230.522z"/>
	</g>
</g>
<g>
	<g>
		<path d="M289.963,263.554H63.568c-5.77,0-10.449,4.679-10.449,10.449c0,5.77,4.679,10.449,10.449,10.449h226.395
			c5.77,0,10.449-4.678,10.449-10.449C300.412,268.233,295.733,263.554,289.963,263.554z"/>
	</g>
</g>
<g>
</g>
<g>
</g>
<g>
</g>
<g>
</g>
<g>
</g>
<g>
</g>
<g>
</g>
<g>
</g>
<g>
</g>
<g>
</g>
<g>
</g>
<g>
</g>
<g>
</g>
<g>
</g>
<g>
</g>
</svg>
