<svg width="280" height="79" viewBox="0 0 280 79" fill="none" xmlns="http://www.w3.org/2000/svg">
<rect x="33.8652" y="-1.84131" width="14.0282" height="84.8638" rx="7.01411" transform="rotate(25 33.8652 -1.84131)" fill="#1B1559"/>
<rect x="94.1865" y="-1.90039" width="14.0282" height="84.8638" rx="7.01411" transform="rotate(25 94.1865 -1.90039)" fill="#7B52FB"/>
<rect x="129.958" y="-1.90039" width="14.0282" height="84.8638" rx="7.01411" transform="rotate(25 129.958 -1.90039)" fill="#FF6501"/>
<rect x="28.1606" y="3.92871" width="14.0282" height="84.8638" rx="7.01411" transform="rotate(-25 28.1606 3.92871)" fill="black"/>
<rect x="63.9326" y="3.92871" width="14.0282" height="84.8638" rx="7.01411" transform="rotate(-25 63.9326 3.92871)" fill="black"/>
<path d="M151.056 36H160.128L161.664 30.528H173.04L174.528 36H183.6L175.248 8.736C174.048 4.752 170.688 2.88 167.328 2.88C163.968 2.88 160.608 4.752 159.408 8.736L151.056 36ZM166.992 11.328C167.088 10.992 167.184 10.848 167.376 10.848C167.568 10.848 167.664 10.992 167.76 11.328L170.832 22.608H163.872L166.992 11.328ZM187.68 0.959999V36H196.32V0.959999H187.68ZM214.575 36.672C219.951 36.672 224.031 33.984 226.095 29.52L219.471 26.208C218.607 28.08 216.783 29.328 214.479 29.328C211.839 29.328 210.015 27.888 209.439 25.488H226.143V23.328C226.143 16.896 221.775 11.04 213.903 11.04C206.319 11.04 201.135 16.8 201.135 23.712C201.135 31.584 206.895 36.672 214.575 36.672ZM209.823 21.024C210.351 19.632 211.743 18.432 213.807 18.432C215.823 18.432 217.167 19.68 217.551 21.024H209.823ZM241.735 36V19.2H248.647V12H241.735V11.664C241.735 9.36 243.127 8.064 245.383 8.064C246.583 8.064 248.023 8.4 249.175 9.024V1.2C247.975 0.671997 246.199 0.383998 244.567 0.383998C236.743 0.383998 233.095 5.472 233.095 11.856V12H229.015V19.2H233.095V36H241.735ZM262.395 36.72C265.179 36.72 267.339 35.808 268.875 34.224V36H277.035V23.952C277.035 16.608 271.515 11.232 263.835 11.232C256.347 11.232 250.635 16.992 250.635 23.952C250.635 30.96 255.387 36.72 262.395 36.72ZM263.835 28.608C261.099 28.608 259.275 26.496 259.275 24C259.275 21.456 261.099 19.344 263.835 19.344C266.571 19.344 268.395 21.456 268.395 24C268.395 26.496 266.571 28.608 263.835 28.608Z" fill="black"/>
<path d="M156.576 72.72C157.392 76.608 159.984 78.768 163.488 78.768C166.656 78.768 169.488 76.656 170.304 73.104L174.288 55.584L178.272 73.104C179.088 76.656 181.92 78.768 185.088 78.768C188.592 78.768 191.184 76.608 192 72.72L197.76 45.6H188.88L184.704 67.776L181.056 51.648C180 46.896 177.744 44.88 174.288 44.88C170.832 44.88 168.576 46.896 167.52 51.648L163.872 67.776L159.696 45.6H150.816L156.576 72.72ZM211.669 78.672C217.045 78.672 221.125 75.984 223.189 71.52L216.565 68.208C215.701 70.08 213.877 71.328 211.573 71.328C208.933 71.328 207.109 69.888 206.533 67.488H223.237V65.328C223.237 58.896 218.869 53.04 210.997 53.04C203.413 53.04 198.229 58.8 198.229 65.712C198.229 73.584 203.989 78.672 211.669 78.672ZM206.917 63.024C207.445 61.632 208.837 60.432 210.901 60.432C212.917 60.432 214.261 61.68 214.645 63.024H206.917ZM240.748 78.72C248.236 78.72 253.948 73.008 253.948 66.048C253.948 58.368 248.86 53.28 241.228 53.28C239.452 53.28 237.676 53.808 236.188 54.624V42.96H227.548V66.048C227.548 73.392 233.068 78.72 240.748 78.72ZM240.748 70.608C238.012 70.608 236.188 68.544 236.188 66C236.188 63.504 238.012 61.392 240.748 61.392C243.484 61.392 245.308 63.504 245.308 66C245.308 68.544 243.484 70.608 240.748 70.608Z" fill="black"/>
<path d="M261.836 69.366C261.169 68.9811 261.169 68.0189 261.836 67.634L277.586 58.5407C278.253 58.1558 279.086 58.6369 279.086 59.4067V77.5933C279.086 78.3631 278.253 78.8442 277.586 78.4593L261.836 69.366Z" fill="black"/>
</svg>
