<svg width="328" height="115" viewBox="0 0 328 115" fill="none" xmlns="http://www.w3.org/2000/svg">
<rect x="35.8652" y="0.158691" width="14.0282" height="84.8638" rx="7.01411" transform="rotate(25 35.8652 0.158691)" fill="#1B1559"/>
<rect x="96.1865" y="0.0996094" width="14.0282" height="84.8638" rx="7.01411" transform="rotate(25 96.1865 0.0996094)" fill="#FF2F89"/>
<rect x="131.958" y="0.0996094" width="14.0282" height="84.8638" rx="7.01411" transform="rotate(25 131.958 0.0996094)" fill="#FF7B34"/>
<rect x="30.1606" y="5.92871" width="14.0282" height="84.8638" rx="7.01411" transform="rotate(-25 30.1606 5.92871)" fill="black"/>
<rect x="65.9326" y="5.92871" width="14.0282" height="84.8638" rx="7.01411" transform="rotate(-25 65.9326 5.92871)" fill="black"/>
<path d="M153.056 38H162.128L163.664 32.528H175.04L176.528 38H185.6L177.248 10.736C176.048 6.752 172.688 4.88 169.328 4.88C165.968 4.88 162.608 6.752 161.408 10.736L153.056 38ZM168.992 13.328C169.088 12.992 169.184 12.848 169.376 12.848C169.568 12.848 169.664 12.992 169.76 13.328L172.832 24.608H165.872L168.992 13.328ZM189.68 2.96V38H198.32V2.96H189.68ZM216.575 38.672C221.951 38.672 226.031 35.984 228.095 31.52L221.471 28.208C220.607 30.08 218.783 31.328 216.479 31.328C213.839 31.328 212.015 29.888 211.439 27.488H228.143V25.328C228.143 18.896 223.775 13.04 215.903 13.04C208.319 13.04 203.135 18.8 203.135 25.712C203.135 33.584 208.895 38.672 216.575 38.672ZM211.823 23.024C212.351 21.632 213.743 20.432 215.807 20.432C217.823 20.432 219.167 21.68 219.551 23.024H211.823ZM243.735 38V21.2H250.647V14H243.735V13.664C243.735 11.36 245.127 10.064 247.383 10.064C248.583 10.064 250.023 10.4 251.175 11.024V3.2C249.975 2.672 248.199 2.384 246.567 2.384C238.743 2.384 235.095 7.472 235.095 13.856V14H231.015V21.2H235.095V38H243.735ZM264.395 38.72C267.179 38.72 269.339 37.808 270.875 36.224V38H279.035V25.952C279.035 18.608 273.515 13.232 265.835 13.232C258.347 13.232 252.635 18.992 252.635 25.952C252.635 32.96 257.387 38.72 264.395 38.72ZM265.835 30.608C263.099 30.608 261.275 28.496 261.275 26C261.275 23.456 263.099 21.344 265.835 21.344C268.571 21.344 270.395 23.456 270.395 26C270.395 28.496 268.571 30.608 265.835 30.608Z" fill="black"/>
<path d="M158.576 74.72C159.392 78.608 161.984 80.768 165.488 80.768C168.656 80.768 171.488 78.656 172.304 75.104L176.288 57.584L180.272 75.104C181.088 78.656 183.92 80.768 187.088 80.768C190.592 80.768 193.184 78.608 194 74.72L199.76 47.6H190.88L186.704 69.776L183.056 53.648C182 48.896 179.744 46.88 176.288 46.88C172.832 46.88 170.576 48.896 169.52 53.648L165.872 69.776L161.696 47.6H152.816L158.576 74.72ZM213.669 80.672C219.045 80.672 223.125 77.984 225.189 73.52L218.565 70.208C217.701 72.08 215.877 73.328 213.573 73.328C210.933 73.328 209.109 71.888 208.533 69.488H225.237V67.328C225.237 60.896 220.869 55.04 212.997 55.04C205.413 55.04 200.229 60.8 200.229 67.712C200.229 75.584 205.989 80.672 213.669 80.672ZM208.917 65.024C209.445 63.632 210.837 62.432 212.901 62.432C214.917 62.432 216.261 63.68 216.645 65.024H208.917ZM242.748 80.72C250.236 80.72 255.948 75.008 255.948 68.048C255.948 60.368 250.86 55.28 243.228 55.28C241.452 55.28 239.676 55.808 238.188 56.624V44.96H229.548V68.048C229.548 75.392 235.068 80.72 242.748 80.72ZM242.748 72.608C240.012 72.608 238.188 70.544 238.188 68C238.188 65.504 240.012 63.392 242.748 63.392C245.484 63.392 247.308 65.504 247.308 68C247.308 70.544 245.484 72.608 242.748 72.608Z" fill="black"/>
<path d="M6.064 108.176C7.856 108.176 9.44 107.28 10.288 105.808L9.456 105.312C8.736 106.496 7.456 107.2 6.032 107.2C3.68 107.2 1.776 105.2 1.776 102.64C1.776 100.112 3.696 98.112 6.032 98.112C7.456 98.112 8.736 98.832 9.456 100.016L10.288 99.52C9.44 98.048 7.856 97.136 6.064 97.136C3.136 97.136 0.72 99.584 0.72 102.64C0.72 105.728 3.136 108.176 6.064 108.176ZM13.0533 108V103.264C13.0533 101.936 13.7893 101.088 14.9733 101.088C15.4213 101.088 15.8533 101.2 16.2373 101.424V100.416C15.8373 100.224 15.3733 100.128 14.8932 100.128C13.1013 100.128 12.0613 101.408 12.0613 103.216V108H13.0533ZM21.1799 98.816L23.0199 96.56H21.9639L20.1399 98.816H21.1799ZM20.8919 108.16C22.3159 108.16 23.5319 107.52 24.2359 106.24L23.4679 105.824C22.9079 106.816 21.9479 107.216 20.8919 107.216C19.2439 107.216 18.0279 106.048 17.8679 104.464H24.4439V103.872C24.4439 101.664 22.9719 100.048 20.7159 100.048C18.4439 100.048 16.8919 101.856 16.8919 104.096C16.8919 106.416 18.6039 108.16 20.8919 108.16ZM17.8999 103.664C18.0439 102.16 19.0999 100.992 20.7159 100.992C22.2839 100.992 23.4199 102.048 23.4519 103.664H17.8999ZM29.9216 108.16C31.3936 108.16 32.5936 107.36 33.1856 106.192V108H34.1296V104.096C34.1296 101.824 32.3376 100.064 30.0496 100.064C27.7296 100.064 25.9856 101.888 25.9856 104.096C25.9856 106.336 27.6816 108.16 29.9216 108.16ZM30.0496 107.216C28.3376 107.216 26.9776 105.808 26.9776 104.112C26.9776 102.416 28.3376 101.008 30.0496 101.008C31.7776 101.008 33.1376 102.416 33.1376 104.112C33.1376 105.808 31.7776 107.216 30.0496 107.216ZM39.8223 108.176C40.3983 108.176 40.9743 107.984 41.3743 107.68V106.72C40.9903 107.04 40.4623 107.248 39.9023 107.248C38.8783 107.248 38.2063 106.576 38.2063 105.424V101.136H41.3743V100.24H38.2063V98.176H37.2143V100.24H35.5663V101.136H37.2143V105.456C37.2143 107.104 38.1743 108.176 39.8223 108.176ZM44.5804 98.368C44.9804 98.368 45.2844 98.048 45.2844 97.632C45.2844 97.216 44.9804 96.896 44.5804 96.896C44.1804 96.896 43.8604 97.216 43.8604 97.632C43.8604 98.048 44.1804 98.368 44.5804 98.368ZM44.0844 100.24V108H45.0764V100.24H44.0844ZM51.4719 108.16C53.7599 108.16 55.5359 106.336 55.5359 104.096C55.5359 101.888 53.7919 100.064 51.4719 100.064C49.1999 100.064 47.3919 101.872 47.3919 104.096C47.3919 106.336 49.1679 108.16 51.4719 108.16ZM51.4719 107.216C49.7439 107.216 48.3839 105.808 48.3839 104.112C48.3839 102.416 49.7439 101.008 51.4719 101.008C53.1839 101.008 54.5439 102.416 54.5439 104.112C54.5439 105.808 53.1839 107.216 51.4719 107.216ZM61.226 101.008C63.034 101.008 64.01 102.464 64.01 104.128V108H65.002V104.016C65.002 101.776 63.61 100.064 61.226 100.064C58.89 100.064 57.53 101.792 57.53 104.032V108H58.522V104.112C58.522 102.464 59.466 101.008 61.226 101.008ZM74.747 108.144C76.283 108.144 77.611 107.264 77.611 105.856C77.611 102.912 73.003 104.208 73.003 102.32C73.003 101.52 73.835 101.056 74.699 101.056C75.515 101.056 76.187 101.28 76.603 102.064L77.419 101.6C76.907 100.672 75.947 100.128 74.683 100.128C73.195 100.128 72.011 101.04 72.011 102.336C72.011 105.28 76.619 103.92 76.619 105.872C76.619 106.768 75.755 107.216 74.715 107.216C73.771 107.216 73.051 106.896 72.587 106L71.771 106.448C72.347 107.584 73.435 108.144 74.747 108.144ZM80.596 98.368C80.996 98.368 81.3 98.048 81.3 97.632C81.3 97.216 80.996 96.896 80.596 96.896C80.196 96.896 79.876 97.216 79.876 97.632C79.876 98.048 80.196 98.368 80.596 98.368ZM80.1 100.24V108H81.092V100.24H80.1ZM87.1035 108.176C87.6795 108.176 88.2555 107.984 88.6555 107.68V106.72C88.2715 107.04 87.7435 107.248 87.1835 107.248C86.1595 107.248 85.4875 106.576 85.4875 105.424V101.136H88.6555V100.24H85.4875V98.176H84.4955V100.24H82.8475V101.136H84.4955V105.456C84.4955 107.104 85.4555 108.176 87.1035 108.176ZM94.2513 108.16C95.6753 108.16 96.8913 107.52 97.5953 106.24L96.8273 105.824C96.2673 106.816 95.3073 107.216 94.2513 107.216C92.6033 107.216 91.3873 106.048 91.2273 104.464H97.8033V103.872C97.8033 101.664 96.3313 100.048 94.0753 100.048C91.8033 100.048 90.2513 101.856 90.2513 104.096C90.2513 106.416 91.9633 108.16 94.2513 108.16ZM91.2593 103.664C91.4033 102.16 92.4593 100.992 94.0753 100.992C95.6433 100.992 96.7793 102.048 96.8113 103.664H91.2593ZM106.643 108.176C107.363 108.176 107.763 107.776 107.955 106.992L109.331 101.408C109.395 101.104 109.571 100.944 109.811 100.944C110.051 100.944 110.227 101.104 110.307 101.408L111.667 106.992C111.859 107.776 112.259 108.176 112.995 108.176C113.699 108.176 114.131 107.776 114.323 106.96L115.859 100.24H114.931L113.459 106.768C113.379 107.104 113.235 107.264 112.995 107.264C112.755 107.264 112.595 107.104 112.515 106.816L111.155 101.248C110.963 100.448 110.515 100.064 109.827 100.064C109.123 100.064 108.675 100.448 108.467 101.264L107.091 106.816C107.027 107.088 106.867 107.264 106.643 107.264C106.387 107.264 106.243 107.104 106.163 106.768L104.675 100.24H103.731L105.283 106.96C105.475 107.76 105.923 108.176 106.643 108.176ZM121.001 108.16C122.425 108.16 123.641 107.52 124.345 106.24L123.577 105.824C123.017 106.816 122.057 107.216 121.001 107.216C119.353 107.216 118.137 106.048 117.977 104.464H124.553V103.872C124.553 101.664 123.081 100.048 120.825 100.048C118.553 100.048 117.001 101.856 117.001 104.096C117.001 106.416 118.713 108.16 121.001 108.16ZM118.009 103.664C118.153 102.16 119.209 100.992 120.825 100.992C122.393 100.992 123.529 102.048 123.561 103.664H118.009ZM130.735 108.176C133.055 108.176 134.799 106.352 134.799 104.128C134.799 101.84 133.071 100.064 130.767 100.064C129.455 100.064 128.303 100.736 127.647 101.728V96.672H126.655V104.128C126.655 106.4 128.447 108.176 130.735 108.176ZM130.735 107.232C129.007 107.232 127.647 105.824 127.647 104.128C127.647 102.432 129.007 101.008 130.735 101.008C132.447 101.008 133.807 102.432 133.807 104.128C133.807 105.824 132.447 107.232 130.735 107.232ZM146.093 98.112C147.085 98.112 147.853 98.72 148.285 99.68L149.101 99.216C148.525 97.968 147.501 97.152 145.997 97.152C144.365 97.152 143.133 98.304 143.133 99.84C143.133 100.624 143.421 101.328 143.885 101.984C142.333 102.448 141.341 103.584 141.341 105.056C141.341 106.864 142.861 108.176 145.133 108.176C146.541 108.176 147.741 107.664 148.669 106.816L149.885 108H151.277L149.341 106.112C150.013 105.264 150.509 104.208 150.781 103.04L149.901 102.688C149.677 103.76 149.245 104.72 148.669 105.472L145.645 102.544C144.749 101.664 144.205 100.784 144.205 99.92C144.205 98.912 145.021 98.112 146.093 98.112ZM142.397 105.024C142.397 103.856 143.261 102.96 144.429 102.672C144.557 102.816 144.701 102.96 144.845 103.104L147.997 106.176C147.245 106.848 146.301 107.232 145.229 107.232C143.581 107.232 142.397 106.304 142.397 105.024ZM162.923 108.176C164.715 108.176 166.299 107.28 167.147 105.808L166.315 105.312C165.595 106.496 164.315 107.2 162.891 107.2C160.539 107.2 158.635 105.2 158.635 102.64C158.635 100.112 160.555 98.112 162.891 98.112C164.315 98.112 165.595 98.832 166.315 100.016L167.147 99.52C166.299 98.048 164.715 97.136 162.923 97.136C159.995 97.136 157.579 99.584 157.579 102.64C157.579 105.728 159.995 108.176 162.923 108.176ZM172.441 108.16C174.729 108.16 176.505 106.336 176.505 104.096C176.505 101.888 174.761 100.064 172.441 100.064C170.169 100.064 168.361 101.872 168.361 104.096C168.361 106.336 170.137 108.16 172.441 108.16ZM172.441 107.216C170.713 107.216 169.353 105.808 169.353 104.112C169.353 102.416 170.713 101.008 172.441 101.008C174.153 101.008 175.513 102.416 175.513 104.112C175.513 105.808 174.153 107.216 172.441 107.216ZM188.003 100.048C186.451 100.048 185.363 100.992 185.011 102.352C184.659 100.992 183.507 100.048 181.891 100.048C179.731 100.048 178.499 101.744 178.499 103.92V108H179.491V104.032C179.491 102.416 180.291 100.992 181.955 100.992C183.587 100.992 184.483 102.352 184.483 104V108H185.475V103.984C185.475 102.352 186.355 100.992 187.955 100.992C189.619 100.992 190.467 102.416 190.467 104.048V108H191.459V103.904C191.459 101.744 190.195 100.048 188.003 100.048ZM203.518 100.048C201.966 100.048 200.878 100.992 200.526 102.352C200.174 100.992 199.022 100.048 197.406 100.048C195.246 100.048 194.014 101.744 194.014 103.92V108H195.006V104.032C195.006 102.416 195.806 100.992 197.47 100.992C199.102 100.992 199.998 102.352 199.998 104V108H200.99V103.984C200.99 102.352 201.87 100.992 203.47 100.992C205.134 100.992 205.982 102.416 205.982 104.048V108H206.974V103.904C206.974 101.744 205.71 100.048 203.518 100.048ZM213.146 107.216C211.466 107.216 210.522 105.76 210.522 104.112V100.24H209.53V104.192C209.53 106.432 210.89 108.16 213.146 108.16C215.434 108.16 216.81 106.448 216.81 104.208V100.24H215.818V104.096C215.818 105.76 214.842 107.216 213.146 107.216ZM223.07 101.008C224.878 101.008 225.854 102.464 225.854 104.128V108H226.846V104.016C226.846 101.776 225.454 100.064 223.07 100.064C220.734 100.064 219.374 101.792 219.374 104.032V108H220.366V104.112C220.366 102.464 221.31 101.008 223.07 101.008ZM230.221 98.368C230.621 98.368 230.925 98.048 230.925 97.632C230.925 97.216 230.621 96.896 230.221 96.896C229.821 96.896 229.501 97.216 229.501 97.632C229.501 98.048 229.821 98.368 230.221 98.368ZM229.725 100.24V108H230.717V100.24H229.725ZM236.985 108.16C238.361 108.16 239.609 107.552 240.329 106.24L239.497 105.776C238.937 106.752 238.025 107.216 236.985 107.216C235.385 107.216 234.025 105.808 234.025 104.112C234.025 102.416 235.385 101.008 236.985 101.008C238.025 101.008 238.937 101.472 239.497 102.464L240.329 101.984C239.609 100.672 238.361 100.064 236.985 100.064C234.841 100.064 233.033 101.872 233.033 104.112C233.033 106.352 234.841 108.176 236.985 108.16ZM245.547 108.16C247.019 108.16 248.219 107.36 248.811 106.192V108H249.755V104.096C249.755 101.824 247.963 100.064 245.675 100.064C243.355 100.064 241.611 101.888 241.611 104.096C241.611 106.336 243.307 108.16 245.547 108.16ZM245.675 107.216C243.963 107.216 242.603 105.808 242.603 104.112C242.603 102.416 243.963 101.008 245.675 101.008C247.403 101.008 248.763 102.416 248.763 104.112C248.763 105.808 247.403 107.216 245.675 107.216ZM255.447 108.176C256.023 108.176 256.599 107.984 256.999 107.68V106.72C256.615 107.04 256.087 107.248 255.527 107.248C254.503 107.248 253.831 106.576 253.831 105.424V101.136H256.999V100.24H253.831V98.176H252.839V100.24H251.191V101.136H252.839V105.456C252.839 107.104 253.799 108.176 255.447 108.176ZM260.205 98.368C260.605 98.368 260.909 98.048 260.909 97.632C260.909 97.216 260.605 96.896 260.205 96.896C259.805 96.896 259.485 97.216 259.485 97.632C259.485 98.048 259.805 98.368 260.205 98.368ZM259.709 100.24V108H260.701V100.24H259.709ZM267.097 108.16C269.385 108.16 271.161 106.336 271.161 104.096C271.161 101.888 269.417 100.064 267.097 100.064C264.825 100.064 263.017 101.872 263.017 104.096C263.017 106.336 264.793 108.16 267.097 108.16ZM267.097 107.216C265.369 107.216 264.009 105.808 264.009 104.112C264.009 102.416 265.369 101.008 267.097 101.008C268.809 101.008 270.169 102.416 270.169 104.112C270.169 105.808 268.809 107.216 267.097 107.216ZM276.851 101.008C278.659 101.008 279.635 102.464 279.635 104.128V108H280.627V104.016C280.627 101.776 279.235 100.064 276.851 100.064C274.515 100.064 273.155 101.792 273.155 104.032V108H274.147V104.112C274.147 102.464 275.091 101.008 276.851 101.008Z" fill="black"/>
<path d="M263.836 71.366C263.169 70.9811 263.169 70.0189 263.836 69.634L279.586 60.5407C280.253 60.1558 281.086 60.6369 281.086 61.4067V79.5933C281.086 80.3631 280.253 80.8442 279.586 80.4593L263.836 71.366Z" fill="black"/>
</svg>
