<svg width="350" height="32" viewBox="0 0 350 32" fill="none" xmlns="http://www.w3.org/2000/svg">
<path fill-rule="evenodd" clip-rule="evenodd" d="M348.99 10.0579C347.569 6.37575 335.36 4.82538 298.667 3.53339C264.43 2.306 224.572 -1.24699 154.933 0.690995C101.703 2.17678 35.4244 8.11994 35.4244 11.4145C35.4244 13.8047 38.0084 13.8693 62.6854 11.7375C85.489 9.79953 97.1815 9.34733 111.458 8.83053C54.2229 13.8693 42.0136 17.1639 11.5226 20.3293C-7.59885 22.3318 3.57686 28.0812 10.5536 27.4998C10.6182 27.4998 99.5717 20.2647 107.97 20.6523C108.745 20.7169 100.282 21.8796 89.1066 23.2362C57.905 27.1122 63.9128 33.5715 87.2978 30.5999C165.98 20.587 240.011 17.4862 297.052 21.8144C315.076 23.171 317.078 23.171 317.078 21.4914C317.078 18.5198 312.169 16.2595 304.481 15.8073C292.466 15.0321 246.213 12.8351 225.282 12.1891C223.667 12.1245 224.442 10.8977 225.864 10.7685C234.391 9.92873 302.091 10.5741 328.706 11.4785C348.28 12.1245 349.701 12.0605 348.99 10.0579Z" fill="#FF2F89"/>
</svg>
